<svg width="47" height="47" viewBox="0 0 47 47" fill="none" xmlns="http://www.w3.org/2000/svg">
<path d="M37.4274 12H34.0601C33.3278 12 32.6314 12.3544 32.2006 12.962L20.9141 28.7303L15.8021 21.584C15.3713 20.9836 14.6821 20.6219 13.9426 20.6219H10.5753C10.1086 20.6219 9.83578 21.1572 10.1086 21.5406L19.0545 34.0395C19.2659 34.3367 19.5445 34.5788 19.8672 34.7458C20.19 34.9129 20.5476 35 20.9105 35C21.2734 35 21.631 34.9129 21.9538 34.7458C22.2765 34.5788 22.5551 34.3367 22.7664 34.0395L37.8869 12.9186C38.1669 12.5353 37.8941 12 37.4274 12Z" fill="#79C08D"/>
</svg>
