<svg width="560" height="822" viewBox="0 0 560 822" fill="none" xmlns="http://www.w3.org/2000/svg">
<path opacity="0.1" d="M123.546 531.441C120.152 541.002 125.464 551.359 131.56 556.514C137.657 561.669 151.093 582.523 155.808 611.814C160.522 641.104 167.829 688.905 167.829 722.648C167.829 756.39 175.843 822 280.265 822C384.687 822 391.287 753.812 391.287 722.648C391.287 691.483 396.944 641.572 403.544 611.814C410.145 582.055 408.259 572.448 424.052 549.484C439.844 526.521 437.488 534.019 503.016 447.086C568.544 360.152 559.587 266.892 559.587 266.892C559.587 226.823 544.03 159.104 497.123 103.101C450.215 47.0986 407.551 30.2275 382.801 19.4487C358.051 8.6699 320.054 0 280.265 0C240.476 0 218.508 3.51482 177.022 19.4487C135.536 35.3826 97.8217 59.5176 61.993 103.57C20.2565 154.887 0 216.279 0 267.127C0 317.974 3.53572 368.588 35.5929 414.749C67.6502 460.91 93.8145 458.099 108.193 458.099C122.572 458.099 136.243 450.366 147.59 440.056C158.936 429.746 173.44 401.94 176.583 388.036C176.583 388.036 189.279 323.598 189.987 319.849C190.694 316.1 191.4 314.928 193.522 314.694C195.912 314.43 198.473 316.334 199.887 317.974C201.301 319.615 203.894 322.426 214.297 334.611C224.7 346.796 242.786 368.588 280.265 368.588C317.744 368.588 334.951 340.704 339.429 334.143C343.908 327.582 379.769 268.767 379.769 268.767C383.352 262.768 387.955 267.18 390.58 268.767C396.394 272.282 409.233 280.202 412.062 281.889C416.509 284.541 417.923 285.404 417.923 285.404V279.311V175.975C417.923 172.461 417.923 168.009 417.216 167.54C416.509 167.071 413.036 168.477 409.704 170.352C406.373 172.226 343.626 207.375 316.126 223.543C324.344 228.698 339.194 237.602 344.379 240.883C349.08 243.856 351.279 246.506 349.126 250.255C346.972 254.005 322.05 294.074 316.126 303.681C310.201 313.288 291.108 327.113 280.265 327.113C274.372 327.113 258.547 328.519 238.543 304.149C218.54 279.78 209.551 262.052 184.8 268.767C160.05 275.481 156.713 288.352 147.59 334.143C135.747 393.576 127.05 409.53 108.193 411.905C89.3359 414.28 74.9573 399.987 63.1716 370.697C51.3858 341.406 41.0953 307.938 42.193 267.127C43.2907 226.315 67.6502 148.326 124.929 102.633C182.208 56.9401 231.236 45.927 280.265 45.927C329.294 45.927 380.444 57.8774 435.13 103.101C489.816 148.326 516.923 223.543 516.923 266.892C516.923 310.242 516.216 331.096 499.716 371.165C483.216 411.234 452.101 446.148 440.551 458.099C429.001 470.049 392.294 517.851 379.769 541.986C367.244 566.121 360.88 578.54 355.222 621.421C349.565 664.302 348.858 663.833 348.858 722.648C348.858 781.462 297.205 781.462 280.265 781.462C263.325 781.462 210.258 781.462 210.258 722.648C210.258 663.833 207.124 646.493 202.479 621.421C197.834 596.348 188.1 556.514 177.022 541.986C165.943 527.458 154.864 522.303 146.882 520.897C139.712 519.634 126.94 521.881 123.546 531.441Z" fill="url(#paint0_linear_1_15933)"/>
<defs>
<linearGradient id="paint0_linear_1_15933" x1="0" y1="0" x2="764.684" y2="522.365" gradientUnits="userSpaceOnUse">
<stop stop-color="#0E8FFF"/>
<stop offset="1" stop-color="#2345C3"/>
</linearGradient>
</defs>
</svg>
