<svg width="1057" height="655" fill="none" xmlns="http://www.w3.org/2000/svg"><path opacity=".05" d="M675.675 385.913l-85.159-70.674m85.159 70.674l-8.056 42.869m8.056-42.869l-.584-36.225m.584 36.225l78.671 63.986m-163.83-134.66l-88.411-70.014m88.411 70.014l-10.801 44.726m10.801-44.726l5.184-33.03m-93.595-36.984l-88.4-62.113m88.4 62.113l10.826-28.925m-10.826 28.925l-13.303 45.235m-75.097-107.348l-84.326-48.173m84.326 48.173l16.528-25.039m-16.528 25.039l-15.26 44.593m-69.066-92.766l-76.901-30.861m76.901 30.861l21.861-22.432m-21.861 22.432l-17.27 43.7m-59.631-74.561L187.08 90.3269m65.398 13.7511l26.953-22.0101m-26.953 22.0101l-18.792 43.646M187.08 90.3269l-50.448-.6697m50.448.6697l31.333-23.7838M187.08 90.3269l-20.44 44.5011m-30.008-45.1708l-32.49 6.0285m32.49-6.0285l34.879-27.3122m-34.879 27.3122l-21.774 46.3838m-10.716-40.3553l-12.8349 7.2873m12.8349-7.2873L81.3013 144.73m22.8407-49.0443l37.243-31.2761M91.3071 102.973l6.8599-6.1772 9.502-8.5337 21.846-19.725 11.87-4.1275M91.3071 102.973L67.729 154.767m641.345 398.752l-77.381-45.841m77.381 45.841l24.159-27.474m-24.159 27.474l-28.128 14.034m28.128-14.034l69.151 33.735m-146.532-79.576l-82.685-53.863m82.685 53.863l-21.472 22.301m21.472-22.301l20.357-35.801m-103.042-18.062l-84.773-56.662m84.773 56.662l-14.109 31.464m14.109-31.464l15.842-44.554m-100.615-12.108l-83.641-52.941m83.641 52.941l11.01-52.568m-11.01 52.568l-6.444 40.825m-77.197-93.766l-79.281-43.167m79.281 43.167l6.015-59.092m-6.015 59.092l1.434 48.948m-80.715-92.115l-71.692-29.111m71.692 29.111l.873-63.3m-.873 63.3l8.99 54.744m-80.682-83.855l-61.099-13.896m61.099 13.896l-4.063-64.74m4.063 64.74l15.958 57.436m-77.057-71.332l-47.425-.921m47.425.921l-8.398-64.016m8.398 64.016l22.116 56.964m-69.541-57.885L89.8361 264.3m31.2609-7.183l-11.644-62.056m11.644 62.056l26.951 54.371M89.8361 264.3l-13.5207 10.286M89.8361 264.3l29.9109 51.274M89.8361 264.3l-13.5575-60.211m.0368 70.497l-13.9327-59.251m13.9327 59.251l30.9786 48.613m-30.9786-48.613l4.8612 9.672 25.1384 39.504 4.84 7.544m574.224-174.53l-71.297-17.336m71.297 17.336l66.756 22.366m-66.756-22.366l-15.235 10.062m-56.062-27.398l-73.176-14.303m73.176 14.303l-6.582 9.552m-66.594-23.855l-72.167-13.208m72.167 13.208l2.352 8.881m-74.519-22.089l11.028 8.731m-11.028-8.731l-68.628-12.7307m79.656 21.4617l-60.431-12.421m60.431 12.421l5.856 28.915m-5.856-28.915l63.491 13.358m-123.922-25.779l-55.405-11.3093m55.405 11.3093l13.986 29.916m-13.986-29.916l-19.225-9.0407m-36.18-2.2686l-40.41-8.1167m40.41 8.1167l10.4 15.0453m-10.4-15.0453l-26.693-9.8635m-13.717 1.7468l50.81 23.162m-50.81-23.162l-13.067-5.9766M653.205 566.013l55.725 22.476m-55.725-22.476l-62.302-30.602m62.302 30.602l27.741 1.54m27.984 20.936l47.098 12.737 41.418 9.212m-88.516-21.949l35.142 6.587m53.374 15.362l38.942-4.063m-38.942 4.063l-53.374-15.362m53.374 15.362l41.603 2.779 42.643-3.308m-45.304-3.534l29.931-15.909m-29.931 15.909l-58.163-19.121m58.163 19.121l45.304 3.534m-15.373-19.443l16.175-25.487m-16.175 25.487l47.497 5.066m-47.497-5.066l-60.832-23.725m77.007-1.762l.422-33.363m-.422 33.363l-60.927-28.231m60.927 28.231l47.967 6.841m-47.545-40.204l-14.528-39.372m14.528 39.372l-58.828-31.204m58.828 31.204l46.723 8.394m-61.251-47.766l-54.95-31.109m54.95 31.109l-26.477-40.689m26.477 40.689l43.971 8.953m-98.921-40.062l-65.018-49.6m65.018 49.6l10.65 39.277m-10.65-39.277l-21.512-37.589m-43.506-12.011l-73.329-61.847m73.329 61.847l5.926 38.364m-5.926-38.364l-15.501-32.208m-57.828-29.639l-2.985-9.169-5.447-16.312m8.432 25.481l-5.003-4.288-30.919-26.319-43.469-36.872m70.959 41.998l-2.546-1.978-20.017-16.679m22.563 18.657l9.114 7.04m-568.479-8.048l43.317 30.82m-43.317-30.82l12.453-7.625m-12.453 7.625l3.861 8.107m39.456 22.713l3.015 5.523m-3.015-5.523l10.958-4.254m-10.958 4.254l48.724 9.756m-45.709-4.233l16.819 5.214m-16.819-5.214l-6.334-4.172-36.137-24.064m42.471 28.236l48.099 7.23m-31.28-2.016l29.418 4.111 3.849.206m-33.267-4.317l33.267 4.317m0 0l12.229 1.155m-12.229-1.155l11.059 1.549 4.922.611 21.243 2.392m-24.995-3.397l24.995 3.397m-24.995-3.397l14.961-5.067.25-.051m-15.211 5.118l-14.216-3.456m39.211 6.853l34.724 3.293.25-.051m-34.974-3.242l10.369-3.822m24.605 7.064l-.11-.03-14.333-4.783m14.443 4.813l26.377 8.836m660.36 69.089l-34.508-34.117m34.508 34.117l-18.51 32.877m18.51-32.877l19.378 35.839m-19.378-35.839l4.039-46.421m-38.547 12.304l-44.694-26.121m44.694 26.121l3.721-40.377m-3.721 40.377l-17.051 28.317m-27.643-54.438l-48.724-11.523m48.724 11.523l-14.849 22.307m14.849-22.307l3.123-32.403m-51.847 20.88l-45.75 6.954m45.75-6.954l-12.625 16.655m12.625-16.655l2.502-24.79m-48.252 31.744l-9.937 11.483m9.937-11.483l-15.073 10.342m15.073-10.342l1.853-18.834m-11.79 30.317l-4.945-.972m4.945.972l3.591.726m24.609 15.434l34.677 33.927m-34.677-33.927l35.568 7.645m-35.568-7.645l-33.145-17.132m67.822 51.059l40.152 8.638m-40.152-8.638l-49.985-28.009m120.433 77.651l31.778-13.528m-31.778 13.528l17.28 38.813m-17.28-38.813l-30.296-41.004m62.074 27.476l18.907 37.599m-18.907-37.599l-33.049-38.677M187.187 55.9367l26.851 1.7723m-26.851-1.7723l-10.854 1.2173m10.854-1.2173l-25.402 4.7447m0 0l14.548-3.5274m-14.548 3.5274l-2.723.4491-17.677 3.2791m88.333 300.3154l-43.506-15.547m43.506 15.547l-15.659-1.602m15.659 1.602l1.434.385m-44.94-15.932l-38.164-37.69m38.164 37.69l37.151 5.711m-37.151-5.711l-24.643.587m-13.521-38.277l-28.301 4.086m28.301-4.086l42.59 3.514m-70.891.572l41.822 34.191m448.29-72.72l17.879-42.005m-17.879 42.005l19.554 16.201m-19.554-16.201l-14.985-12.503m32.864-29.502l22.103-40.991m-22.103 40.991l43.49 18.254m-43.49-18.254l-46.802-15.605m68.905-25.386l20.303-27.211m-20.303 27.211l50.384 20.337m-50.384-20.337l-53.843-17.138m74.146-10.073L607.5 148.992m62.644 17.846l58.367 21.887M214.038 57.709l-42.527 4.636m42.527-4.636l41.91 7.8118m-84.437-3.1758l46.902 4.1981m-46.902-4.1981l-30.126 2.0646m-26.527 71.6314l-5.405 59.02m5.405-59.02l-33.5567 8.689m33.5567-8.689l51.782-1.213m-57.187 60.233l50.671-1.039m-50.671 1.039l-33.1744 9.028M190.638 315.002l32.725 39.887m-32.725-39.887l54.941 14.368m-22.216 25.519l38.104 17.165m-38.104-17.165l47.877 14.243m-9.773 2.922l-10.162-2.251m531.32 32.391l17.181 3.425m-17.181-3.425l39.471-2.508m0 0l46.5 17.175m-46.5-17.175l-22.29 5.933m68.79 11.242l42.492 32.131m-42.492-32.131l-25.794 8.412M255.948 65.5208l-37.535 1.0223m37.535-1.0223l46.648 14.8567m-84.183-13.8344l61.018 15.5248M166.64 134.828l-6.516 59.194m6.516-59.194l67.046 12.896m-73.562 46.298l65.434 13.172m20.021 122.176l25.661 39.762m-25.661-39.762l64.724 26.419m-39.063 13.343l16.156 8.573 14.891 7.998m-31.047-16.571l56.461 23.262m-25.414-6.691l48.442 20.523M761.7 393.758l29.124-22.607M761.7 393.758l.986.736m-.986-.736l-9.593-6.578-3.068-2.236m41.785-13.793l46.399-12.91m-46.399 12.91l-7.388-23.197m53.787 10.287l49.345 3.91m-49.345-3.91l-8.114-29.757m57.459 33.667l45.292 18.147m-45.292-18.147l-8.981-38.004m54.273 56.151l34.826 28.073m-34.826-28.073l-9.956-46.28m44.782 74.353l18.857 33.814m-18.857-33.814l-11.212-52.628m30.069 86.442l-.21 35.659-.312 7.343-.658 9.961-1.517 29.061m2.697-82.024l-3.518 48.446m3.518-48.446l-12.559-55.111m9.862 137.135l-18.568 33.098m18.568-33.098l-.821-33.578m-248.792 35.414l15.876-36.294m-15.876 36.294l72.254 40.696m-72.254-40.696l-81.183-54.168m97.059 17.874l5.237-39.852m-5.237 39.852l-81.49-60.969m81.49 60.969l72.458 46.997m-67.221-86.849l69.742 50.513m-91.169-121.085l-6.776-6.058m6.776 6.058l11.034 8.261 12.404 9.336 35.569 26.622m-65.783-50.277l-15.72-15.057m15.72 15.057l-23.033-18.667-3.281-2.765-24.203-20.04-8.997-7.479m43.794 33.894l17.267 11.935m-17.267-11.935l-6.65-5.2m40.299 242.064l34.153-7.822m-34.153 7.822l-63.126-27.523m97.279 19.701l27.262-20.513m0 0l16.08-29.993m0 0l2.521-36.336m-32.162-76.866l-24.547-24.494-4.693-4.558m0 0l11.212 5.833M176.333 57.154l-18.765 3.8123-16.183 3.4433M946.838 582.22l-33.022 13.312m33.022-13.312l-28.982 13.687-5.027 2.425-31.137 11.577m65.146-27.689l17.44-24.913m-50.462 38.225l-32.124 14.377m32.124-14.377l16.645-23.712M652.05 471.877l-87.2-62.616m87.2 62.616l15.569-43.095M564.85 409.261l-89.605-64.676m89.605 64.676l14.865-49.296m-104.47-15.38l-88.636-59.465m88.636 59.465l13.557-54.125m-102.193-5.34l-84.423-47.375m84.423 47.375l11.836-57.415m-96.259 10.04l-76.628-30.551m76.628 30.551l9.923-59.106m-86.551 28.555l8.128-59.47M76.2786 204.089l-13.8959 11.246m13.8959-11.246l5.0227-59.359m-18.9186 70.605l5.3463-60.568M930.461 571.82l-.822-31.81m.822 31.81l33.817-14.513m-34.639-17.297l33.405-14.742m-80.981-65.075l-39.261-34.92m39.261 34.92l29.025-11.201m-68.286-23.719l-42.996-19.654M310.454 82.8364l-31.023-.7685m31.023.7685l-7.858-2.4589m-23.165 1.6904l71.809 30.4391m-117.554 35.217l78.423 30.915m-1.806 177.15l17.398 36.605m-17.398-36.605l71.725 37.371m-54.327-.766l23.028 13.832m-23.028-13.832l52.891 26.431 9.896 5.009m-39.759-17.608l40.361 19.773 13.391 6.535m81.142-282.959l-.29 31.984m.29-31.984l54.882 12.82m-54.882-12.82l-52.301-11.42m52.011 43.404l28.309 19.726m-28.309-19.726L445.9 153.902m126.396 92.921l8.64-27.388m-8.64 27.388l22.578 17.719m-22.578-17.719l-41.241-32.385m49.881 4.997l15.062-42.524m-15.062 42.524l-48.083-13.473m63.145-29.051l11.502-27.919m-11.502 27.919l-55.493-14.516m66.995-13.403l-64.242-14.974m334.329 190.129l-21.209-39.159m21.209 39.159l-48.478 4.337m48.478-4.337l44.317 9.871m-65.526-49.03l-32.799-36.96m32.799 36.96l-45.802 12.009m45.802-12.009l41.501 2.28m-74.3-39.24l-41.361 18.385m41.361-18.385l37.021-3.518m-37.021 3.518l-43.155-32.309M374.853 112.233l-23.613.274m23.613-.274l36.293 21.276m-36.293-21.276l-.522-.258m-23.091.532l78.993 45.566m-118.124 20.566l86.336 49.066M382.028 393.16l8.46 30.674m-8.46-30.674l75.763 44.818m-67.303-14.144l13.993 8.7m-13.993-8.7l29.171 16.068 25.433 14.123m-40.611-21.491l40.611 21.491m-11.77-315.87l-22.176-4.646m22.176 4.646l1.322 9.194m-23.498-13.84l23.498 13.84m156.259 388.062l19.318-5.432m-19.318 5.432l-66.199-36.362m85.517 30.93l-75.322-44.7m75.322 44.7l70.725 37.574m-13.327-138.771l-87.904-68.817M337.238 87.0662l62.873 12.1321m-62.873-12.1321l-34.642-6.6887M773.898 400.327l.191.169m9.347-52.542l-16.335-25.122m16.335 25.122l-35.963 32.68m35.963-32.68l45.673-19.47m-62.008-5.652l-24.76-25.023m24.76 25.023l-34.537 37.069m34.537-37.069l43.475-25.835m-68.235.812l-32.377-23.527m32.377 23.527l-32.272 40.977m32.272-40.977l39.877-31.396m-72.254 7.869l-38.736-20.988m38.736 20.988l-29.028 44.321m29.028-44.321l34.875-35.683m-73.611 14.695l-25.107 46.905m25.107-46.905l28.997-38.908m-167.372-8.424l-19.211-4.677m19.211 4.677l-1.798 8.476m1.798-8.476l7.652-43.567m-26.863 38.89l6.658 4.731m4.404 293.033l10.195-13.77m-10.195 13.77l-67.664-38.404m77.859 24.634l-77.108-47.301m121.924-78.013l-90.913-69.505m106.898-8.251l-.826-17.667m.826 17.667L512.931 216.3M67.729 154.767l13.5723-10.037m317.1437 82.975l90.357 62.755M445.9 153.902l-15.667 4.171m15.667-4.171l-11.256-6.553m-4.411 10.724l82.698 58.227m-55.14 221.678l-.751 22.667m507.238 96.662l-1.234-32.039m0 0l18.981-34.637M749.039 384.944l-2.796-1.928m2.796 1.928l-1.566-4.31m-1.23 2.382l-.794-.567-17.759-12.302m18.553 12.869l1.23-2.382m-19.783-10.487l4.874-10.246m-28.791-6.889l-28-21.765m28 21.765l6.296-14.226m-34.296-7.539l5.163-12.644m-36.84-13.053l-.574-.508-14.109-11.796m14.683 12.304l2.025-5.351m-16.708-6.953l16.708 6.953m-115.066-85.761l-10.755-8.422m0 0l-7.369 10.284M201.725 366.772l10.774-3.124 1.56-.525m-12.334 3.649l-2.39-2.997m14.724-.652l-5.312-.481m22.405 2.468l20.153 4.693m193.787 84.222l11.948 6.62m498.434-104.902l-26.651-52.404m26.651 52.404l-33.57-21.725m33.57 21.725l17.51 31.331m-44.161-83.735l-13.336-15.125-27.974-32.013m41.31 47.138l-30.944-16.071m30.944 16.071l25.82 48.881 2.42 4.656 15.921 30.198m-85.471-130.873L860.6 244.51m26.913 11.691l-44.655-32.004-9.917-7.136M860.6 244.51l-49.297-36.312M860.6 244.51l37.279 42.758m-86.576-79.07l-35.551-17.423m35.551 17.423l-30.879 7.521m30.879-7.521l21.638 8.863m-57.189-26.286l-23.617-11.633m23.617 11.633l31.717 14.51 5.364 2.498 20.108 9.278m-80.806-37.919l-23.624 9.583m-185.253-54.707l-2.753 28.377m169.564 176.391l22.495 21.115m-22.495-21.115l-29.133-20.183m101.282-52.19l28.358 30.584m-28.358-30.584l-37.379-27.814m-63.903 80.004l-34.815-18.404m98.718-61.6l35.585-22.88m-35.585 22.88l-44.614-24.213m80.199 1.333l-51.913-26.994m-566.942 161.04l47.178 12.877m0 0l-9.412 1.133m533.229-3.874l14.909 20.733m63.103-83.637l18.533 31.487m68.77-41.216l24.025 46.75M700.225 214.386l28.286-25.661" stroke="#2656D8" stroke-width="3" stroke-linecap="round" stroke-linejoin="round"/></svg>