<svg width="1298" height="245" viewBox="0 0 1298 245" fill="none" xmlns="http://www.w3.org/2000/svg">
<g clip-path="url(#clip0_466_35461)">
<path d="M221.05 122.6C221.05 103.5 215.55 84.7 205.05 68.7L243.75 29.8L214.75 0.599976L176.05 39.5C143.45 18.1 101.25 18.1 68.65 39.5L29.85 0.599976L0.75 29.8L39.45 68.7C18.15 101.5 18.15 143.8 39.45 176.6L0.75 215.4L29.85 244.6L68.55 205.7C101.15 227.1 143.35 227.1 175.95 205.7L214.65 244.6L243.75 215.4L205.05 176.5C215.55 160.5 221.15 141.8 221.05 122.6V122.6ZM64.65 122.6C64.65 99 78.85 77.7 100.65 68.9C122.45 60.1 147.45 65.4 163.75 82.4C180.05 99.4 184.45 124.7 174.75 146.2L136.75 108L107.75 137.2L145.75 175.4C127.95 183.4 107.25 181.9 90.85 171.2C74.55 160.5 64.65 142.2 64.65 122.6V122.6Z" fill="white"/>
<path d="M430.5 123.8C430.5 147.7 418.5 169.2 397 179.1L408.4 194L384.9 205.9L369.2 185H368.7C329.9 185 307 156.7 307 123.7C307 90.7 329.9 62.4 368.7 62.4C407.5 62.4 430.5 90.8 430.5 123.8V123.8ZM368.8 161C390.7 161 402.6 143.9 402.6 123.7C402.6 103.5 390.7 86.4 368.8 86.4C346.7 86.4 334.8 103.5 335 123.7C334.8 144 346.7 161 368.8 161ZM473.7 183.9C454.6 183.9 444.3 172 444.3 151.3V101.9H469.9V145.6C469.9 156.5 473.5 162.5 483.1 162.5C493.8 162.5 498.4 155.5 498.4 144.8V101.9H523.5V181.7H498.4V170.3C494 178.8 485.8 183.9 473.7 183.9V183.9ZM576.2 183.9C552.4 183.9 538.7 165.8 538.7 141.8C538.7 117.9 553.4 99.7 576.5 99.7C588.1 99.7 597.1 105.2 601.4 113.3V101.9H626.5V181.7H601.4V170.4C597.2 178.4 587.3 183.9 576.2 183.9V183.9ZM583.5 162.9C596 162.9 602.5 153.5 602.5 141.9C602.5 130.5 596.1 121 583.5 121C571.8 121 564.5 129.8 564.5 141.9C564.5 153.9 571.8 162.9 583.5 162.9ZM647.5 101.9H672.8V113.5C677.4 104.6 686.5 99.8 698.5 99.8C717.8 99.8 727.5 110.7 727.5 132.4V181.8H702.1V140.7C702.1 127.3 698.3 121.2 688.1 121.2C678 121.2 672.8 127.8 672.8 140.1V181.8H647.5V101.9ZM789.4 162C792.5 162 795.8 161.8 798.1 161.5V181.7C794.5 182.4 788.5 183 781.3 183C769.4 183 753.1 180.3 753.1 153.7V121.9H740.6V101.9H753.1V78.2H778.4V101.9H796.4V121.9H778.4V148.4C778.4 160.2 783.2 162 789.4 162V162ZM844.6 184.2C821.3 184.2 807 172.8 807 157.7H832.1C832.1 163.2 837.4 167.1 845.1 167.1C850.5 167.1 854.3 164.3 854.3 159.6C854.3 156.5 852.8 153.8 848.5 152.8L829 147.8C815.8 144.5 809 136.2 809 124.8C809 109.9 822 99.5 843 99.5C866.3 99.5 878.5 109.3 878.5 124.3H853.6C853.6 118.7 849.5 115.5 842.7 115.5C837.3 115.5 833.6 118.2 833.6 122.1C833.6 125.7 836.1 128.1 840.4 129.2L859.2 134.3C871.4 137.6 879.3 145.1 879.3 156.5C879.4 173.1 866.3 184.2 844.6 184.2V184.2ZM936.8 162C939.9 162 943.2 161.8 945.5 161.5V181.7C941.9 182.4 935.9 183 928.7 183C916.8 183 900.5 180.3 900.5 153.7V121.9H888V101.9H900.5V78.2H925.8V101.9H943.8V121.9H925.8V148.4C925.8 160.2 930.5 162 936.8 162V162ZM991.8 183.9C968 183.9 954.3 165.8 954.3 141.8C954.3 117.9 969 99.7 992.1 99.7C1003.7 99.7 1012.7 105.2 1017 113.3V101.9H1042.1V181.7H1017V170.4C1012.7 178.4 1002.8 183.9 991.8 183.9V183.9ZM999 162.9C1011.5 162.9 1018 153.5 1018 141.9C1018 130.5 1011.6 121 999 121C987.3 121 980 129.8 980 141.9C980 153.9 987.3 162.9 999 162.9ZM1063.1 101.9H1088.4V113.5C1091.9 105.5 1100.1 99.8 1111.2 99.8C1125.4 99.8 1132.7 106.1 1136.1 114.5C1140.4 105.9 1149.8 99.8 1161.5 99.8C1184.3 99.8 1189.7 115.5 1189.7 132.3V181.8H1164.3V136.9C1164.3 125.8 1160.2 121.2 1152.4 121.2C1144.5 121.2 1139 125.7 1139 140.7V181.8H1113.6V136.7C1113.6 125.6 1109.6 121.1 1101.9 121.1C1093.8 121.1 1088.4 125.6 1088.4 140.6V181.7H1063.1V101.9ZM1209.6 101.9H1234.9V113.3C1239 105.7 1248.9 99.7 1260.8 99.7C1282.6 99.7 1297.4 116.6 1297.4 141.8C1297.4 166.8 1282.1 183.9 1260.1 183.9C1248.4 183.9 1238.8 177.9 1234.9 170.5V214.9H1209.6V101.9ZM1252.8 162.9C1263.9 162.9 1271.6 154.3 1271.6 141.9C1271.6 129.6 1263.8 121 1252.8 121C1241.4 121 1233.7 129.4 1233.7 141.9C1233.7 154.4 1241.6 162.9 1252.8 162.9Z" fill="white"/>
<path d="M651.73 25H660.76V60H651.73V55.87C649.023 59.2767 645.22 60.98 640.32 60.98C635.653 60.98 631.64 59.2067 628.28 55.66C624.967 52.0667 623.31 47.68 623.31 42.5C623.31 37.32 624.967 32.9567 628.28 29.41C631.64 25.8167 635.653 24.02 640.32 24.02C645.22 24.02 649.023 25.7233 651.73 29.13V25ZM635.07 49.64C636.89 51.46 639.2 52.37 642 52.37C644.8 52.37 647.11 51.46 648.93 49.64C650.797 47.7733 651.73 45.3933 651.73 42.5C651.73 39.6067 650.797 37.25 648.93 35.43C647.11 33.5633 644.8 32.63 642 32.63C639.2 32.63 636.89 33.5633 635.07 35.43C633.25 37.25 632.34 39.6067 632.34 42.5C632.34 45.3933 633.25 47.7733 635.07 49.64ZM692.048 25H701.078V60H692.048V56.08C689.855 59.3467 686.378 60.98 681.618 60.98C677.792 60.98 674.618 59.6967 672.098 57.13C669.625 54.5633 668.388 51.0167 668.388 46.49V25H677.418V45.37C677.418 47.7033 678.048 49.5 679.308 50.76C680.568 51.9733 682.248 52.58 684.348 52.58C686.682 52.58 688.548 51.8567 689.948 50.41C691.348 48.9633 692.048 46.7933 692.048 43.9V25ZM735.879 11H744.909V60H735.879V55.87C733.219 59.2767 729.439 60.98 724.539 60.98C719.825 60.98 715.789 59.2067 712.429 55.66C709.115 52.0667 707.459 47.68 707.459 42.5C707.459 37.32 709.115 32.9567 712.429 29.41C715.789 25.8167 719.825 24.02 724.539 24.02C729.439 24.02 733.219 25.7233 735.879 29.13V11ZM719.219 49.64C721.085 51.46 723.419 52.37 726.219 52.37C729.019 52.37 731.329 51.46 733.149 49.64C734.969 47.7733 735.879 45.3933 735.879 42.5C735.879 39.6067 734.969 37.25 733.149 35.43C731.329 33.5633 729.019 32.63 726.219 32.63C723.419 32.63 721.085 33.5633 719.219 35.43C717.399 37.25 716.489 39.6067 716.489 42.5C716.489 45.3933 717.399 47.7733 719.219 49.64ZM757.647 20.8C756.154 20.8 754.847 20.2633 753.727 19.19C752.654 18.07 752.117 16.7633 752.117 15.27C752.117 13.7767 752.654 12.47 753.727 11.35C754.847 10.23 756.154 9.67 757.647 9.67C759.187 9.67 760.494 10.23 761.567 11.35C762.687 12.47 763.247 13.7767 763.247 15.27C763.247 16.7633 762.687 18.07 761.567 19.19C760.494 20.2633 759.187 20.8 757.647 20.8ZM753.167 60V25H762.197V60H753.167ZM790.482 33.68H782.572V48.24C782.572 49.4533 782.875 50.34 783.482 50.9C784.089 51.46 784.975 51.7867 786.142 51.88C787.309 51.9267 788.755 51.9033 790.482 51.81V60C784.275 60.7 779.889 60.1167 777.322 58.25C774.802 56.3833 773.542 53.0467 773.542 48.24V33.68H767.452V25H773.542V17.93L782.572 15.2V25H790.482V33.68ZM803.385 46.21C804.598 50.5967 807.888 52.79 813.255 52.79C816.708 52.79 819.322 51.6233 821.095 49.29L828.375 53.49C824.922 58.4833 819.835 60.98 813.115 60.98C807.328 60.98 802.685 59.23 799.185 55.73C795.685 52.23 793.935 47.82 793.935 42.5C793.935 37.2267 795.662 32.84 799.115 29.34C802.568 25.7933 807.002 24.02 812.415 24.02C817.548 24.02 821.772 25.7933 825.085 29.34C828.445 32.8867 830.125 37.2733 830.125 42.5C830.125 43.6667 830.008 44.9033 829.775 46.21H803.385ZM803.245 39.21H821.095C820.582 36.83 819.508 35.0567 817.875 33.89C816.288 32.7233 814.468 32.14 812.415 32.14C809.988 32.14 807.982 32.77 806.395 34.03C804.808 35.2433 803.758 36.97 803.245 39.21ZM862.685 11H871.715V60H862.685V55.87C860.025 59.2767 856.245 60.98 851.345 60.98C846.632 60.98 842.595 59.2067 839.235 55.66C835.922 52.0667 834.265 47.68 834.265 42.5C834.265 37.32 835.922 32.9567 839.235 29.41C842.595 25.8167 846.632 24.02 851.345 24.02C856.245 24.02 860.025 25.7233 862.685 29.13V11ZM846.025 49.64C847.892 51.46 850.225 52.37 853.025 52.37C855.825 52.37 858.135 51.46 859.955 49.64C861.775 47.7733 862.685 45.3933 862.685 42.5C862.685 39.6067 861.775 37.25 859.955 35.43C858.135 33.5633 855.825 32.63 853.025 32.63C850.225 32.63 847.892 33.5633 846.025 35.43C844.205 37.25 843.295 39.6067 843.295 42.5C843.295 45.3933 844.205 47.7733 846.025 49.64ZM917.844 24.02C922.557 24.02 926.57 25.8167 929.884 29.41C933.244 32.9567 934.924 37.32 934.924 42.5C934.924 47.68 933.244 52.0667 929.884 55.66C926.57 59.2067 922.557 60.98 917.844 60.98C912.944 60.98 909.164 59.2767 906.504 55.87V60H897.474V11H906.504V29.13C909.164 25.7233 912.944 24.02 917.844 24.02ZM909.234 49.64C911.054 51.46 913.364 52.37 916.164 52.37C918.964 52.37 921.274 51.46 923.094 49.64C924.96 47.7733 925.894 45.3933 925.894 42.5C925.894 39.6067 924.96 37.25 923.094 35.43C921.274 33.5633 918.964 32.63 916.164 32.63C913.364 32.63 911.054 33.5633 909.234 35.43C907.414 37.25 906.504 39.6067 906.504 42.5C906.504 45.3933 907.414 47.7733 909.234 49.64ZM962.745 25H972.405L959.665 60C957.845 65.04 955.418 68.68 952.385 70.92C949.398 73.2067 945.665 74.2333 941.185 74V65.6C943.612 65.6467 945.525 65.1333 946.925 64.06C948.372 62.9867 949.515 61.26 950.355 58.88L936.005 25H945.875L954.975 48.52L962.745 25Z" fill="white"/>
</g>
<defs>
<clipPath id="clip0_466_35461">
<rect width="1298" height="245" fill="white"/>
</clipPath>
</defs>
</svg>
