<svg xmlns="http://www.w3.org/2000/svg" width="20" height="20" viewBox="0 0 20 20"><g fill="#fff"><path d="M17.857 20C19.04 20 20 19.04 20 17.857V2.143C20 .96 19.04 0 17.857 0H2.143C.96 0 0 .96 0 2.143v15.714C0 19.04.96 20 2.143 20zM7.353 15.8a8.297 8.297 0 01-4.496-1.313c.237.026.464.035.705.035 1.371 0 2.63-.464 3.634-1.25a2.93 2.93 0 01-2.736-2.03c.45.066.857.066 1.321-.055a2.927 2.927 0 01-2.343-2.874v-.036a2.92 2.92 0 001.32.37C4.04 8.17 3.456 7.08 3.456 6.215V6.21c0-.545.143-1.045.398-1.478a8.305 8.305 0 006.034 3.063c-.415-1.987 1.072-3.599 2.858-3.599.843 0 1.602.353 2.138.925a5.736 5.736 0 001.857-.706 2.923 2.923 0 01-1.286 1.612 5.832 5.832 0 001.688-.456 6.142 6.142 0 01-1.469 1.518c.009.125.009.255.009.38 0 3.87-2.946 8.33-8.33 8.33z"/><path d="M.809 2.802h18.337v15.161H.809z"/></g><text word-spacing="0" letter-spacing="0" font-size="13.333" font-weight="400" style="line-height:1.25" x="4.84" y="14.86" font-family="sans-serif"><tspan style="-inkscape-font-specification:'sans-serif Bold'" x="4.84" y="14.86" font-weight="700">A</tspan></text></svg>