<svg width="25" height="25" viewBox="0 0 25 25" fill="none" xmlns="http://www.w3.org/2000/svg">
<path d="M11.8333 24.2643C18.0926 24.2643 23.1667 19.1902 23.1667 12.931C23.1667 6.67176 18.0926 1.59766 11.8333 1.59766C5.57411 1.59766 0.5 6.67176 0.5 12.931C0.5 19.1902 5.57411 24.2643 11.8333 24.2643Z" fill="#FFCC4D"/>
<path d="M12.4993 19.2669C13.2357 19.2669 13.8327 18.5207 13.8327 17.6003C13.8327 16.6798 13.2357 15.9336 12.4993 15.9336C11.763 15.9336 11.166 16.6798 11.166 17.6003C11.166 18.5207 11.763 19.2669 12.4993 19.2669Z" fill="#664500"/>
<path d="M5.90733 14.5215C5.786 14.5215 5.66266 14.4882 5.55266 14.4188C5.24133 14.2228 5.148 13.8115 5.344 13.4995C5.95466 12.5308 7.81133 10.8742 10.4707 11.5248C10.828 11.6122 11.0467 11.9735 10.9593 12.3308C10.8713 12.6882 10.5087 12.9055 10.1533 12.8195C7.75066 12.2315 6.48533 14.1902 6.47266 14.2102C6.34533 14.4115 6.12866 14.5215 5.90733 14.5215ZM13.8893 12.0268C13.696 12.0268 13.5053 11.9435 13.3733 11.7828C13.14 11.4982 13.1813 11.0775 13.4667 10.8442C15.584 9.10816 17.9747 9.80282 18.9433 10.4135C19.2547 10.6095 19.348 11.0215 19.1513 11.3328C18.956 11.6428 18.546 11.7375 18.234 11.5428C18.142 11.4868 16.1993 10.3275 14.3113 11.8755C14.1873 11.9775 14.038 12.0268 13.8893 12.0268Z" fill="#664500"/>
<path d="M9.39729 21.1143C9.35195 21.1143 9.30595 21.1083 9.26062 21.0956C8.99529 21.0203 8.84062 20.7443 8.91595 20.4783C9.20729 19.4516 9.08795 18.459 8.58929 17.7543C8.25795 17.2863 7.78595 17.0003 7.29395 16.969C7.01795 16.9523 6.80862 16.7143 6.82595 16.439C6.84329 16.1636 7.07995 15.9383 7.35595 15.9716C8.15129 16.021 8.89795 16.4603 9.40462 17.1763C10.0786 18.129 10.2513 19.4316 9.87729 20.7503C9.81529 20.971 9.61462 21.1143 9.39729 21.1143ZM16.7553 19.0736C16.6606 19.0736 16.5653 19.047 16.4806 18.991C15.7026 18.4776 15.2673 17.5796 15.286 16.5276C15.3053 15.4376 15.8253 14.4256 16.6086 13.9483C16.844 13.8043 17.1513 13.879 17.2953 14.1156C17.4393 14.3516 17.3646 14.6583 17.128 14.8023C16.638 15.101 16.2986 15.8016 16.2853 16.545C16.272 17.2483 16.5446 17.8356 17.0306 18.1563C17.2613 18.3083 17.3246 18.6183 17.1726 18.849C17.0766 18.995 16.918 19.0736 16.7553 19.0736Z" fill="#E2A62D"/>
<path d="M11.9527 2.08C11.9241 2.04733 11.8794 2.02933 11.8267 2.01933C11.8267 2.01933 1.21075 0.00399849 0.751415 0.409332C0.292748 0.815332 0.993415 11.5987 0.993415 11.5987C0.996748 11.6527 1.00875 11.6987 1.03808 11.7313C1.44075 12.1873 4.21008 10.3953 7.22408 7.73067C10.2387 5.06533 12.3554 2.536 11.9527 2.08Z" fill="#DD2E44"/>
<path d="M0.732365 0.44605C0.722365 0.46605 0.713698 0.493383 0.707031 0.52805C0.813031 1.44205 1.83703 8.96272 2.47503 11.3134C3.43236 10.7781 4.40503 10.0507 5.5477 9.14472C4.57703 7.36805 1.2717 0.362716 0.732365 0.44605Z" fill="#EA596E"/>
<path d="M20.435 19.7519L13.3863 18.8832C12.633 18.8152 11.3083 18.8085 11.3763 17.6152C11.4383 16.5332 12.7363 16.6999 13.6956 16.8419L20.7876 18.0245L20.435 19.7519Z" fill="#3B88C3"/>
<path d="M20.7871 18.0266L17.9724 17.5439C17.6431 17.4846 17.3498 17.9753 17.3351 18.4946C17.3184 19.0719 17.4864 19.3639 17.8191 19.4319L20.5818 19.7733L20.7871 18.0266Z" fill="#88C9F9"/>
<path d="M23.7789 17.8268L22.0309 19.4341L18.9062 16.0361L20.6543 14.4288C21.5616 13.5941 22.9869 13.6541 23.8216 14.5614L23.9116 14.6594C24.7456 15.5674 24.6863 16.9921 23.7789 17.8268Z" fill="#3B88C3"/>
<path d="M22.0305 19.4333C22.7813 18.743 22.6905 17.4227 21.8278 16.4844C20.9651 15.546 19.657 15.345 18.9063 16.0353C18.1555 16.7256 18.2463 18.0458 19.109 18.9842C19.9718 19.9225 21.2798 20.1235 22.0305 19.4333Z" fill="#88C9F9"/>
<path d="M21.4037 18.7535C21.7791 18.4083 21.6638 17.6722 21.1462 17.1092C20.6286 16.5463 19.9047 16.3697 19.5293 16.7149C19.1539 17.06 19.2692 17.7962 19.7868 18.3591C20.3044 18.9221 21.0283 19.0986 21.4037 18.7535Z" fill="#226699"/>
<path d="M2.16602 23.5977C2.7183 23.5977 3.16602 23.1499 3.16602 22.5977C3.16602 22.0454 2.7183 21.5977 2.16602 21.5977C1.61373 21.5977 1.16602 22.0454 1.16602 22.5977C1.16602 23.1499 1.61373 23.5977 2.16602 23.5977Z" fill="#55ACEE"/>
<path d="M19.8333 2.93229C20.5697 2.93229 21.1667 2.33534 21.1667 1.59896C21.1667 0.862579 20.5697 0.265625 19.8333 0.265625C19.097 0.265625 18.5 0.862579 18.5 1.59896C18.5 2.33534 19.097 2.93229 19.8333 2.93229Z" fill="#55ACEE"/>
<path d="M3.74339 19.7617L2.18472 16.0177L0.775391 20.0477L3.74339 19.7617ZM17.8341 3.59766L15.1674 4.26432L15.8341 1.59766L17.8341 3.59766Z" fill="#EA596E"/>
<path d="M21.8328 8.93229L24.5001 5.59829L22.5001 4.26562L21.8328 8.93229Z" fill="#77B255"/>
</svg>
