<svg xmlns="http://www.w3.org/2000/svg" width="16" height="21" viewBox="0 0 16 21">
    <g fill="none" fill-rule="evenodd">
        <g fill="#0857E0" fill-rule="nonzero">
            <g>
                <g>
                    <g>
                        <g>
                            <path d="M29.5 30c1.38 0 2.5-1.12 2.5-2.5V15c0-1.38-1.12-2.5-2.5-2.5h-1.938c-.29-1.426-1.55-2.5-3.062-2.5-1.512 0-2.772 1.074-3.062 2.5H19.5c-1.38 0-2.5 1.12-2.5 2.5v12.5c0 1.38 1.12 2.5 2.5 2.5h10zm-5-16.25c-.517 0-.937-.42-.937-.937 0-.517.42-.938.937-.938.517 0 .937.42.937.938 0 .516-.42.937-.937.937zm5 14.375h-10c-.345 0-.625-.28-.625-.625V15c0-.345.28-.625.625-.625h.713c-.052.2-.088.408-.088.625v.625c0 .345.28.625.625.625h7.5c.345 0 .625-.28.625-.625V15c0-.217-.036-.424-.088-.625h.713c.345 0 .625.28.625.625v12.5c0 .345-.28.625-.625.625z" transform="translate(-657 -647) translate(119.455 362.112) translate(20 253) translate(0 22) translate(501)"/>
                        </g>
                    </g>
                </g>
            </g>
        </g>
    </g>
</svg>
