<svg width="28" height="28" viewBox="0 0 28 28" fill="none" xmlns="http://www.w3.org/2000/svg">
<path d="M3.00509 6.18693C4.66475 6.18693 6.01017 4.84151 6.01017 3.18185C6.01017 1.52218 4.66475 0.176758 3.00509 0.176758C1.34542 0.176758 0 1.52218 0 3.18185C0 4.84151 1.34542 6.18693 3.00509 6.18693Z" fill="url(#paint0_linear_440_4973)"/>
<path d="M10.2173 6.18693C11.8769 6.18693 13.2223 4.84151 13.2223 3.18185C13.2223 1.52218 11.8769 0.176758 10.2173 0.176758C8.5576 0.176758 7.21217 1.52218 7.21217 3.18185C7.21217 4.84151 8.5576 6.18693 10.2173 6.18693Z" fill="url(#paint1_linear_440_4973)"/>
<path d="M17.4295 6.18693C19.0891 6.18693 20.4345 4.84151 20.4345 3.18185C20.4345 1.52218 19.0891 0.176758 17.4295 0.176758C15.7698 0.176758 14.4244 1.52218 14.4244 3.18185C14.4244 4.84151 15.7698 6.18693 17.4295 6.18693Z" fill="url(#paint2_linear_440_4973)"/>
<path d="M24.6417 6.18693C26.3014 6.18693 27.6468 4.84151 27.6468 3.18185C27.6468 1.52218 26.3014 0.176758 24.6417 0.176758C22.982 0.176758 21.6366 1.52218 21.6366 3.18185C21.6366 4.84151 22.982 6.18693 24.6417 6.18693Z" fill="url(#paint3_linear_440_4973)"/>
<path d="M3.00509 13.3994C4.66475 13.3994 6.01017 12.054 6.01017 10.3943C6.01017 8.73463 4.66475 7.38916 3.00509 7.38916C1.34542 7.38916 0 8.73463 0 10.3943C0 12.054 1.34542 13.3994 3.00509 13.3994Z" fill="url(#paint4_linear_440_4973)"/>
<path d="M17.4295 13.3994C19.0891 13.3994 20.4345 12.054 20.4345 10.3943C20.4345 8.73463 19.0891 7.38916 17.4295 7.38916C15.7698 7.38916 14.4244 8.73463 14.4244 10.3943C14.4244 12.054 15.7698 13.3994 17.4295 13.3994Z" fill="url(#paint5_linear_440_4973)"/>
<path d="M24.6417 13.3994C26.3014 13.3994 27.6468 12.054 27.6468 10.3943C27.6468 8.73463 26.3014 7.38916 24.6417 7.38916C22.982 7.38916 21.6366 8.73463 21.6366 10.3943C21.6366 12.054 22.982 13.3994 24.6417 13.3994Z" fill="url(#paint6_linear_440_4973)"/>
<path d="M3.00509 20.6112C4.66475 20.6112 6.01017 19.2658 6.01017 17.6061C6.01017 15.9465 4.66475 14.6011 3.00509 14.6011C1.34542 14.6011 0 15.9465 0 17.6061C0 19.2658 1.34542 20.6112 3.00509 20.6112Z" fill="url(#paint7_linear_440_4973)"/>
<path d="M10.2173 20.6112C11.8769 20.6112 13.2223 19.2658 13.2223 17.6061C13.2223 15.9465 11.8769 14.6011 10.2173 14.6011C8.5576 14.6011 7.21217 15.9465 7.21217 17.6061C7.21217 19.2658 8.5576 20.6112 10.2173 20.6112Z" fill="url(#paint8_linear_440_4973)"/>
<path d="M24.6417 20.6112C26.3014 20.6112 27.6468 19.2658 27.6468 17.6061C27.6468 15.9465 26.3014 14.6011 24.6417 14.6011C22.982 14.6011 21.6366 15.9465 21.6366 17.6061C21.6366 19.2658 22.982 20.6112 24.6417 20.6112Z" fill="url(#paint9_linear_440_4973)"/>
<path d="M3.00509 27.8236C4.66475 27.8236 6.01017 26.4782 6.01017 24.8185C6.01017 23.1589 4.66475 21.8135 3.00509 21.8135C1.34542 21.8135 0 23.1589 0 24.8185C0 26.4782 1.34542 27.8236 3.00509 27.8236Z" fill="url(#paint10_linear_440_4973)"/>
<path d="M10.2173 27.8236C11.8769 27.8236 13.2223 26.4782 13.2223 24.8185C13.2223 23.1589 11.8769 21.8135 10.2173 21.8135C8.5576 21.8135 7.21217 23.1589 7.21217 24.8185C7.21217 26.4782 8.5576 27.8236 10.2173 27.8236Z" fill="url(#paint11_linear_440_4973)"/>
<path d="M17.4295 27.8236C19.0891 27.8236 20.4345 26.4782 20.4345 24.8185C20.4345 23.1589 19.0891 21.8135 17.4295 21.8135C15.7698 21.8135 14.4244 23.1589 14.4244 24.8185C14.4244 26.4782 15.7698 27.8236 17.4295 27.8236Z" fill="url(#paint12_linear_440_4973)"/>
<path d="M24.6417 27.8236C26.3014 27.8236 27.6468 26.4782 27.6468 24.8185C27.6468 23.1589 26.3014 21.8135 24.6417 21.8135C22.982 21.8135 21.6366 23.1589 21.6366 24.8185C21.6366 26.4782 22.982 27.8236 24.6417 27.8236Z" fill="url(#paint13_linear_440_4973)"/>
<path d="M10.2171 7.24072L7.06378 10.3941L10.2171 13.5474L13.3704 10.3941L10.2171 7.24072Z" fill="black"/>
<path d="M17.4293 14.4531L14.2759 17.6064L17.4293 20.7598L20.5826 17.6064L17.4293 14.4531Z" fill="black"/>
<defs>
<linearGradient id="paint0_linear_440_4973" x1="14.1565" y1="-9.61326" x2="-8.95691" y2="16.907" gradientUnits="userSpaceOnUse">
<stop stop-color="#79E0E8"/>
<stop offset="0.2451" stop-color="#BF8E60"/>
<stop offset="0.5155" stop-color="#D69FCC"/>
<stop offset="0.7896" stop-color="#6086D1"/>
<stop offset="1" stop-color="#B37DBA"/>
</linearGradient>
<linearGradient id="paint1_linear_440_4973" x1="18.2553" y1="-6.04097" x2="-4.85814" y2="20.4793" gradientUnits="userSpaceOnUse">
<stop stop-color="#79E0E8"/>
<stop offset="0.2451" stop-color="#BF8E60"/>
<stop offset="0.5155" stop-color="#D69FCC"/>
<stop offset="0.7896" stop-color="#6086D1"/>
<stop offset="1" stop-color="#B37DBA"/>
</linearGradient>
<linearGradient id="paint2_linear_440_4973" x1="22.3542" y1="-2.46869" x2="-0.759288" y2="24.0516" gradientUnits="userSpaceOnUse">
<stop stop-color="#79E0E8"/>
<stop offset="0.2451" stop-color="#BF8E60"/>
<stop offset="0.5155" stop-color="#D69FCC"/>
<stop offset="0.7896" stop-color="#6086D1"/>
<stop offset="1" stop-color="#B37DBA"/>
</linearGradient>
<linearGradient id="paint3_linear_440_4973" x1="26.4529" y1="1.10359" x2="3.33954" y2="27.6239" gradientUnits="userSpaceOnUse">
<stop stop-color="#79E0E8"/>
<stop offset="0.2451" stop-color="#BF8E60"/>
<stop offset="0.5155" stop-color="#D69FCC"/>
<stop offset="0.7896" stop-color="#6086D1"/>
<stop offset="1" stop-color="#B37DBA"/>
</linearGradient>
<linearGradient id="paint4_linear_440_4973" x1="17.7288" y1="-6.49966" x2="-5.38466" y2="20.0206" gradientUnits="userSpaceOnUse">
<stop stop-color="#79E0E8"/>
<stop offset="0.2451" stop-color="#BF8E60"/>
<stop offset="0.5155" stop-color="#D69FCC"/>
<stop offset="0.7896" stop-color="#6086D1"/>
<stop offset="1" stop-color="#B37DBA"/>
</linearGradient>
<linearGradient id="paint5_linear_440_4973" x1="25.9264" y1="0.644901" x2="2.813" y2="27.1652" gradientUnits="userSpaceOnUse">
<stop stop-color="#79E0E8"/>
<stop offset="0.2451" stop-color="#BF8E60"/>
<stop offset="0.5155" stop-color="#D69FCC"/>
<stop offset="0.7896" stop-color="#6086D1"/>
<stop offset="1" stop-color="#B37DBA"/>
</linearGradient>
<linearGradient id="paint6_linear_440_4973" x1="30.0252" y1="4.21719" x2="6.91182" y2="30.7375" gradientUnits="userSpaceOnUse">
<stop stop-color="#79E0E8"/>
<stop offset="0.2451" stop-color="#BF8E60"/>
<stop offset="0.5155" stop-color="#D69FCC"/>
<stop offset="0.7896" stop-color="#6086D1"/>
<stop offset="1" stop-color="#B37DBA"/>
</linearGradient>
<linearGradient id="paint7_linear_440_4973" x1="21.3011" y1="-3.38662" x2="-1.81237" y2="23.1337" gradientUnits="userSpaceOnUse">
<stop stop-color="#79E0E8"/>
<stop offset="0.2451" stop-color="#BF8E60"/>
<stop offset="0.5155" stop-color="#D69FCC"/>
<stop offset="0.7896" stop-color="#6086D1"/>
<stop offset="1" stop-color="#B37DBA"/>
</linearGradient>
<linearGradient id="paint8_linear_440_4973" x1="25.3998" y1="0.185664" x2="2.28643" y2="26.706" gradientUnits="userSpaceOnUse">
<stop stop-color="#79E0E8"/>
<stop offset="0.2451" stop-color="#BF8E60"/>
<stop offset="0.5155" stop-color="#D69FCC"/>
<stop offset="0.7896" stop-color="#6086D1"/>
<stop offset="1" stop-color="#B37DBA"/>
</linearGradient>
<linearGradient id="paint9_linear_440_4973" x1="33.5975" y1="7.33023" x2="10.4841" y2="33.8506" gradientUnits="userSpaceOnUse">
<stop stop-color="#79E0E8"/>
<stop offset="0.2451" stop-color="#BF8E60"/>
<stop offset="0.5155" stop-color="#D69FCC"/>
<stop offset="0.7896" stop-color="#6086D1"/>
<stop offset="1" stop-color="#B37DBA"/>
</linearGradient>
<linearGradient id="paint10_linear_440_4973" x1="24.8734" y1="-0.273047" x2="1.75991" y2="26.2473" gradientUnits="userSpaceOnUse">
<stop stop-color="#79E0E8"/>
<stop offset="0.2451" stop-color="#BF8E60"/>
<stop offset="0.5155" stop-color="#D69FCC"/>
<stop offset="0.7896" stop-color="#6086D1"/>
<stop offset="1" stop-color="#B37DBA"/>
</linearGradient>
<linearGradient id="paint11_linear_440_4973" x1="28.9721" y1="3.29923" x2="5.85872" y2="29.8196" gradientUnits="userSpaceOnUse">
<stop stop-color="#79E0E8"/>
<stop offset="0.2451" stop-color="#BF8E60"/>
<stop offset="0.5155" stop-color="#D69FCC"/>
<stop offset="0.7896" stop-color="#6086D1"/>
<stop offset="1" stop-color="#B37DBA"/>
</linearGradient>
<linearGradient id="paint12_linear_440_4973" x1="33.071" y1="6.87151" x2="9.95753" y2="33.3918" gradientUnits="userSpaceOnUse">
<stop stop-color="#79E0E8"/>
<stop offset="0.2451" stop-color="#BF8E60"/>
<stop offset="0.5155" stop-color="#D69FCC"/>
<stop offset="0.7896" stop-color="#6086D1"/>
<stop offset="1" stop-color="#B37DBA"/>
</linearGradient>
<linearGradient id="paint13_linear_440_4973" x1="37.1698" y1="10.4438" x2="14.0564" y2="36.9641" gradientUnits="userSpaceOnUse">
<stop stop-color="#79E0E8"/>
<stop offset="0.2451" stop-color="#BF8E60"/>
<stop offset="0.5155" stop-color="#D69FCC"/>
<stop offset="0.7896" stop-color="#6086D1"/>
<stop offset="1" stop-color="#B37DBA"/>
</linearGradient>
</defs>
</svg>
