<svg width="17" height="14" viewBox="0 0 17 14" fill="none" xmlns="http://www.w3.org/2000/svg">
<path d="M13.7959 1.24013C12.6885 0.831024 11.5126 0.553627 10.295 0.434284C10.2841 0.432976 10.2731 0.435078 10.2635 0.440298C10.2539 0.445518 10.2461 0.453599 10.2413 0.463422C10.1121 0.732655 9.97148 1.08166 9.87504 1.35635C8.58537 1.2549 7.28779 1.34564 6.02479 1.62559C5.87595 1.33903 5.71126 1.061 5.53149 0.792765C5.52539 0.78359 5.51664 0.776493 5.5064 0.772421C5.49616 0.768349 5.48493 0.767497 5.47419 0.769977C4.2857 1.05757 3.15993 1.49591 2.11953 2.05591C2.11056 2.06044 2.10318 2.0676 2.0984 2.07643C0.139183 5.43942 -0.240429 8.61228 0.269778 11.6834C0.271125 11.6909 0.273988 11.6981 0.278191 11.7045C0.282395 11.7108 0.287852 11.7163 0.294229 11.7205C1.63369 12.5593 3.10473 13.1668 4.64576 13.5175C4.65651 13.52 4.66776 13.5192 4.67805 13.5152C4.68833 13.5112 4.69718 13.5042 4.70343 13.4951C4.99719 13.0374 5.25416 12.5576 5.4674 12.0575C5.48017 12.0284 5.46378 11.9957 5.43352 11.9866C4.96829 11.8476 4.51467 11.6723 4.07685 11.4623C4.06898 11.4585 4.06218 11.4529 4.05705 11.4458C4.05192 11.4387 4.04863 11.4305 4.04746 11.4218C4.0463 11.4132 4.0473 11.4044 4.05038 11.3962C4.05346 11.388 4.05852 11.3808 4.06511 11.375C4.14896 11.3036 4.23261 11.2293 4.31206 11.1554C4.31921 11.1487 4.32807 11.1442 4.33764 11.1423C4.34722 11.1404 4.35714 11.1411 4.3663 11.1445C7.20845 12.1896 10.1928 11.981 12.8295 10.5527C12.8382 10.5479 12.848 10.5455 12.8578 10.5459C12.8677 10.5464 12.8773 10.5496 12.8854 10.5552C12.9744 10.618 13.0669 10.68 13.1606 10.739C13.168 10.7436 13.1741 10.7501 13.1784 10.7576C13.1827 10.7652 13.185 10.7738 13.1852 10.7825C13.1854 10.7912 13.1834 10.7998 13.1795 10.8076C13.1755 10.8154 13.1697 10.822 13.1625 10.827C12.7598 11.0977 12.3376 11.3325 11.8913 11.5343C11.8844 11.5374 11.8783 11.5418 11.8733 11.5474C11.8683 11.553 11.8645 11.5596 11.8623 11.5668C11.8601 11.574 11.8594 11.5815 11.8603 11.589C11.8612 11.5964 11.8637 11.6036 11.8676 11.61C12.154 12.0744 12.4751 12.5131 12.8235 12.9266C12.8307 12.9351 12.8404 12.9411 12.8512 12.9439C12.862 12.9467 12.8734 12.9461 12.8838 12.9422C14.3637 12.3815 15.7382 11.5747 16.9492 10.5559C16.9551 10.5511 16.9599 10.5451 16.9633 10.5383C16.9667 10.5315 16.9687 10.524 16.969 10.5164C17.0699 6.9174 15.9138 3.87731 13.8191 1.25825C13.8138 1.24963 13.8056 1.2432 13.7959 1.24013ZM5.69632 9.41209C4.86691 9.47009 4.13029 8.76781 4.06597 7.84787C4.00159 6.92724 4.62001 6.13091 5.46276 6.07198C6.31182 6.01261 7.04251 6.72094 7.09312 7.63619C7.15749 8.55683 6.53907 9.35316 5.69632 9.41209ZM11.2924 9.02077C10.4623 9.07882 9.72638 8.37649 9.66205 7.45656C9.59768 6.53592 10.2154 5.73964 11.0588 5.68066C11.9079 5.62129 12.6386 6.32962 12.6892 7.24488C12.7536 8.16551 12.1422 8.96135 11.2924 9.02077Z" fill="white"/>
</svg>
