<svg width="24" height="25" viewBox="0 0 24 25" fill="none" xmlns="http://www.w3.org/2000/svg">
<g opacity="0.7">
<path d="M21.3105 6.5L17.5605 2.75L16.5 3.8105L18.75 6.0605V9.5C18.7504 9.8977 18.9086 10.279 19.1898 10.5602C19.471 10.8414 19.8523 10.9996 20.25 11V18.875C20.25 19.1734 20.1315 19.4595 19.9205 19.6705C19.7095 19.8815 19.4234 20 19.125 20C18.8266 20 18.5405 19.8815 18.3295 19.6705C18.1185 19.4595 18 19.1734 18 18.875V12.5C18 12.3011 17.921 12.1103 17.7803 11.9697C17.6397 11.829 17.4489 11.75 17.25 11.75H14.25V4.25C14.25 4.05109 14.171 3.86032 14.0303 3.71967C13.8897 3.57902 13.6989 3.5 13.5 3.5H3.75C3.55109 3.5 3.36032 3.57902 3.21967 3.71967C3.07902 3.86032 3 4.05109 3 4.25V20H1.5V21.5H15.75V20H14.25V13.25H16.5V18.8C16.4911 19.4114 16.6922 20.0073 17.0695 20.4884C17.4469 20.9695 17.9778 21.3067 18.5737 21.4437C18.9566 21.5251 19.3529 21.52 19.7335 21.4288C20.1142 21.3375 20.4696 21.1624 20.774 20.9163C21.0784 20.6701 21.3239 20.3591 21.4928 20.006C21.6616 19.6528 21.7495 19.2664 21.75 18.875V7.56125C21.7501 7.36416 21.7113 7.16898 21.6359 6.98689C21.5604 6.80479 21.4499 6.63934 21.3105 6.5ZM11.25 9.5H6V8H11.25V9.5Z" fill="#D21B1B"/>
</g>
</svg>
