<svg width="61" height="60" viewBox="0 0 61 60" fill="none" xmlns="http://www.w3.org/2000/svg">
<path d="M17.6562 49.4317V46.5837C17.6562 46.5837 18.3674 46.1017 20.1451 46.1017C23.594 46.1017 25.5525 48.497 26.1007 49.6946C26.6933 48.497 28.5007 46.1017 30.9896 46.1017C33.4785 46.1017 35.2266 48.497 35.7896 49.6946C37.7451 46.2945 40.5748 45.7658 41.7451 45.9265V24.0186C41.4933 19.4033 38.9896 10.1728 30.9896 10.1728C22.9896 10.1728 20.4859 19.4033 20.234 24.0186C20.234 28.0058 20.1696 36.1071 20.234 36.5937C20.3674 37.6015 20.6488 38.2587 20.8563 38.7845C21.0785 39.3979 21.7718 40.6248 22.7674 40.6248C24.0118 40.6248 24.234 39.135 24.3674 38.7845C24.474 38.5041 24.8266 36.7982 24.9896 35.9803C25.0488 35.6152 25.2296 34.7534 25.4785 34.2277C25.7274 33.7019 26.234 33.4536 26.4563 33.3952C26.6192 33.3075 27.0607 33.1673 27.5229 33.3075C27.9851 33.4477 28.4266 33.9794 28.5896 34.2277L29.2118 35.0602C30.1896 36.1556 30.4563 36.287 31.3451 36.287C32.0563 36.287 32.8266 35.4399 33.1229 35.0163C33.5674 34.2715 34.4918 32.7116 34.634 32.4312C34.7763 32.1508 34.5748 31.9638 34.4563 31.9054L33.034 31.0291C34.56 30.1236 37.6385 28.295 37.7451 28.2249C37.8785 28.1373 37.9674 28.1373 38.0118 28.1373C38.0474 28.1373 38.0563 28.1957 38.0563 28.2249V34.1838C37.7303 33.9794 36.9985 33.5178 36.6785 33.3075C36.3585 33.0972 36.2192 33.2199 36.1896 33.3075L34.5007 36.1556C34.2044 36.915 33.1585 38.434 31.3451 38.434C29.0785 38.434 28.1007 36.7252 27.5229 35.9803C27.0607 35.3844 26.9155 35.732 26.9007 35.9803L26.3674 38.7845C26.2785 40.1866 25.3363 42.9908 22.2785 42.9908C19.2207 42.9908 17.6562 38.434 17.6562 35.2792V24.0186C17.834 18.5124 20.7496 7.5 30.9896 7.5C41.2296 7.5 44.1451 18.5124 44.3229 24.0186V49.4317C43.7303 49.1689 42.7674 48.5554 41.5229 48.5554C40.7021 48.5554 39.8785 48.9352 39.5674 49.1689C39.2414 49.3879 38.5007 50.3081 38.2785 50.6586C37.8015 51.4109 37.0785 52.455 35.7896 52.4989C34.5007 52.5427 33.6563 51.3158 33.3007 50.6586C32.9451 50.0014 32.4118 49.3879 32.1896 49.1689C31.9674 48.9498 31.5229 48.6431 30.9896 48.6431C30.4563 48.6431 29.9674 48.9498 29.7451 49.1689C29.5229 49.3879 29.434 49.3441 28.5896 50.6586C27.7451 51.9731 27.034 52.4989 26.1007 52.4989C25.1674 52.4989 24.1896 51.5349 23.7007 50.6586C23.3096 49.9575 22.5896 49.3733 22.2785 49.1689C21.997 48.9644 21.1763 48.5554 20.1451 48.5554C19.114 48.5554 18.0563 49.1396 17.6562 49.4317Z" fill="white"/>
<path d="M27.8785 20.3819C27.8785 21.4708 26.983 22.3536 25.8785 22.3536C24.7739 22.3536 23.8785 21.4708 23.8785 20.3819C23.8785 19.2929 24.7739 18.4101 25.8785 18.4101C26.983 18.4101 27.8785 19.2929 27.8785 20.3819Z" fill="white"/>
<path d="M38.0118 20.3819C38.0118 21.4708 37.1164 22.3536 36.0118 22.3536C34.9072 22.3536 34.0118 21.4708 34.0118 20.3819C34.0118 19.2929 34.9072 18.4101 36.0118 18.4101C37.1164 18.4101 38.0118 19.2929 38.0118 20.3819Z" fill="white"/>
</svg>
