<svg width="60" height="60" viewBox="0 0 60 60" fill="none" xmlns="http://www.w3.org/2000/svg">
<path d="M16.666 49.4317V46.5837C16.666 46.5837 17.3771 46.1017 19.1549 46.1017C22.6038 46.1017 24.5623 48.497 25.1105 49.6946C25.7031 48.497 27.5105 46.1017 29.9994 46.1017C32.4882 46.1017 34.2364 48.497 34.7994 49.6946C36.7549 46.2945 39.5845 45.7658 40.7549 45.9265V24.0186C40.5031 19.4033 37.9994 10.1728 29.9994 10.1728C21.9993 10.1728 19.4956 19.4033 19.2438 24.0186C19.2438 28.0058 19.1794 36.1071 19.2438 36.5937C19.3771 37.6015 19.6586 38.2587 19.866 38.7845C20.0882 39.3979 20.7816 40.6248 21.7771 40.6248C23.0216 40.6248 23.2438 39.135 23.3771 38.7845C23.4838 38.5041 23.8364 36.7982 23.9994 35.9803C24.0586 35.6152 24.2394 34.7534 24.4882 34.2277C24.7371 33.7019 25.2438 33.4536 25.466 33.3952C25.629 33.3075 26.0705 33.1673 26.5327 33.3075C26.9949 33.4477 27.4364 33.9794 27.5994 34.2277L28.2216 35.0602C29.1994 36.1556 29.466 36.287 30.3549 36.287C31.066 36.287 31.8364 35.4399 32.1327 35.0163C32.5771 34.2715 33.5016 32.7116 33.6438 32.4312C33.786 32.1508 33.5845 31.9638 33.466 31.9054L32.0438 31.0291C33.5697 30.1236 36.6482 28.295 36.7549 28.2249C36.8882 28.1373 36.9771 28.1373 37.0216 28.1373C37.0571 28.1373 37.066 28.1957 37.066 28.2249V34.1838C36.7401 33.9794 36.0082 33.5178 35.6882 33.3075C35.3682 33.0972 35.229 33.2199 35.1994 33.3075L33.5105 36.1556C33.2142 36.915 32.1682 38.434 30.3549 38.434C28.0882 38.434 27.1105 36.7252 26.5327 35.9803C26.0705 35.3844 25.9253 35.732 25.9105 35.9803L25.3771 38.7845C25.2882 40.1866 24.346 42.9908 21.2882 42.9908C18.2305 42.9908 16.666 38.434 16.666 35.2792V24.0186C16.8438 18.5124 19.7593 7.5 29.9994 7.5C40.2394 7.5 43.1549 18.5124 43.3327 24.0186V49.4317C42.7401 49.1689 41.7771 48.5554 40.5327 48.5554C39.7118 48.5554 38.8882 48.9352 38.5771 49.1689C38.2512 49.3879 37.5105 50.3081 37.2882 50.6586C36.8113 51.4109 36.0882 52.455 34.7994 52.4989C33.5105 52.5427 32.666 51.3158 32.3105 50.6586C31.9549 50.0014 31.4216 49.3879 31.1994 49.1689C30.9771 48.9498 30.5327 48.6431 29.9994 48.6431C29.466 48.6431 28.9771 48.9498 28.7549 49.1689C28.5327 49.3879 28.4438 49.3441 27.5994 50.6586C26.7549 51.9731 26.0438 52.4989 25.1105 52.4989C24.1771 52.4989 23.1994 51.5349 22.7105 50.6586C22.3193 49.9575 21.5994 49.3733 21.2882 49.1689C21.0068 48.9644 20.186 48.5554 19.1549 48.5554C18.1238 48.5554 17.066 49.1396 16.666 49.4317Z" fill="black"/>
<path d="M26.8882 20.3819C26.8882 21.4708 25.9928 22.3536 24.8882 22.3536C23.7837 22.3536 22.8882 21.4708 22.8882 20.3819C22.8882 19.2929 23.7837 18.4101 24.8882 18.4101C25.9928 18.4101 26.8882 19.2929 26.8882 20.3819Z" fill="black"/>
<path d="M37.0216 20.3819C37.0216 21.4708 36.1261 22.3536 35.0216 22.3536C33.917 22.3536 33.0216 21.4708 33.0216 20.3819C33.0216 19.2929 33.917 18.4101 35.0216 18.4101C36.1261 18.4101 37.0216 19.2929 37.0216 20.3819Z" fill="black"/>
</svg>
