<svg width="223" height="223" viewBox="0 0 223 223" fill="none" xmlns="http://www.w3.org/2000/svg">
<path fill-rule="evenodd" clip-rule="evenodd" d="M21.9047 126.142C14.0943 118.332 14.0943 105.669 21.9047 97.8581L38.0009 81.7619V59.0002C38.0009 47.9545 46.9552 39.0002 58.0009 39.0002H80.7626L96.8581 22.9047C104.669 15.0943 117.332 15.0943 125.142 22.9047L141.238 39.0002H164.001C175.047 39.0002 184.001 47.9545 184.001 59.0002V81.7633L200.096 97.8581C207.906 105.669 207.906 118.332 200.096 126.142L184.001 142.237V165C184.001 176.046 175.047 185 164.001 185H141.238L125.142 201.096C117.332 208.906 104.669 208.906 96.8581 201.096L80.7626 185H58.0009C46.9552 185 38.0009 176.046 38.0009 165V142.238L21.9047 126.142ZM96.4994 50.7062C101.261 48.9683 104.527 48.2756 108.863 48.0842C111.394 47.9725 112.116 47.9722 114.127 48.0818C119.83 48.3923 124.742 49.514 129.459 51.5831C135.257 54.1265 139.037 56.6362 143.191 60.7003C148.646 66.036 152.155 71.534 154.482 78.3919C155.858 82.4435 156.497 85.8528 156.696 90.2007C157.135 99.7726 154.381 109.338 148.865 117.406C147.586 119.277 141.762 126.812 138.459 130.87C136.466 133.319 135.099 135.302 134.636 136.416C134.419 136.94 134.152 137.983 133.853 139.483C133.604 140.733 133.262 142.417 133.094 143.226C132.232 147.36 131.638 152.849 131.455 158.365C131.334 162.017 131.034 163.833 130.205 165.928C128.195 171.006 123.93 174.288 117.807 175.468C113.645 176.27 108.434 176.157 104.587 175.182C97.4042 173.362 93.1935 168.609 92.3116 161.329C92.2538 160.851 92.1604 159.126 92.1041 157.496C91.968 153.546 91.6344 150.403 90.7155 144.413C90.2785 141.563 89.9831 140.286 89.4398 138.896C88.8988 137.513 88.1844 136.34 87.3268 135.429C86.098 134.122 85.4694 132.748 85.3822 131.177C85.2562 128.904 86.3422 127.031 88.3353 126.085C90.1998 125.2 91.8508 125.14 93.9078 125.881C96.243 126.723 98.7184 129.112 99.9547 131.718C101.681 135.355 103.523 143.171 104.055 149.115C104.208 150.819 104.361 154.855 104.364 157.27C104.366 159.553 104.506 160.497 104.979 161.424C105.567 162.578 106.86 163.459 108.546 163.855C109.678 164.121 114.079 164.121 115.211 163.855C116.835 163.473 118.06 162.647 118.61 161.562C119.18 160.436 119.203 160.219 119.289 155.043C119.377 149.796 119.416 149.239 120.013 144.72C120.919 137.852 121.545 135.455 123.403 131.739C123.797 130.952 124.325 129.94 124.577 129.49C126.259 126.492 131.24 119.771 133.841 116.988C138.206 112.319 140.946 108.13 142.679 103.478C144.12 99.6077 144.497 96.9739 144.407 91.4078C144.368 89.0126 144.322 88.307 144.143 87.3796C143.075 81.8249 140.215 75.9522 136.495 71.6733C133.052 67.713 127.746 64.1728 122.56 62.3751C117.339 60.5658 110.75 60.1899 104.877 61.3663C99.9956 62.3443 95.0692 64.7852 90.4144 68.5322C86.1377 71.9749 82.8176 76.952 80.7446 83.0281C79.1781 87.6195 78.8138 91.3365 79.4833 95.8955C80.0313 99.6264 81.7957 104.894 83.353 107.447C84.3289 109.047 85.5775 109.675 86.3618 108.961C87.1994 108.197 88.0614 105.374 89.3469 99.1864C90.5052 93.6112 91.1172 92.0148 92.7478 90.3167C93.5387 89.493 94.5825 88.8404 95.8117 88.4011C98.2521 87.5289 100.2 87.5398 102.066 88.4362C103.594 89.1696 104.669 90.2015 107.144 93.3078C108.921 95.5392 110.162 96.5083 111.369 96.6084C111.836 96.6472 111.998 96.6049 112.608 96.2842C114.131 95.4833 114.389 95.1854 116.537 91.751C117.609 90.0368 118.509 88.5759 118.536 88.5047C118.564 88.4319 118.415 88.2717 118.196 88.1395C115.926 86.7671 111.726 84.1273 111.727 84.0745C111.733 83.8756 129.678 73.7274 130.888 73.2388C132.655 72.525 134.339 73.0823 135.1 74.6326L135.387 75.2166L135.415 86.843C135.43 93.2376 135.425 98.4694 135.404 98.4694C135.383 98.4694 133.765 97.5037 131.807 96.3232C129.85 95.1428 128.238 94.1885 128.225 94.2024C128.212 94.2163 127.554 95.2735 126.764 96.5517C123.272 102.196 122.617 103.181 121.609 104.295C119.648 106.464 117.003 107.948 114.241 108.43C113.084 108.632 110.643 108.636 109.422 108.438C106.26 107.925 103.667 106.566 101.294 104.176L100.409 103.285L99.8183 106.32C99.1951 109.523 98.9284 110.491 98.2369 112.058C96.0918 116.92 93.0225 120.105 89.239 121.395C87.9919 121.82 87.2651 121.92 85.4572 121.913C82.8957 121.905 81.015 121.446 79.1763 120.38C74.9046 117.905 70.9668 112.502 68.9618 106.364C67.7665 102.706 67.2527 99.3287 67.0523 93.8139C66.9292 90.4234 67.0185 88.1765 67.373 85.7449C68.455 78.3228 71.6847 71.0678 76.6848 64.828C82.1104 58.0569 88.1472 53.7545 96.4994 50.7062Z" fill="white"/>
</svg>
