<svg width="12" height="17" viewBox="0 0 12 17" fill="none" xmlns="http://www.w3.org/2000/svg">
<path d="M3.67829 10.8397C3.62571 11.0289 3.7422 11.2219 3.86679 11.3132C3.99138 11.4046 4.27879 11.7894 4.40931 12.3489C4.53984 12.9085 4.7454 13.8221 4.79099 14.4741C4.83658 15.126 5.07984 16.3828 7.09451 16.2419C9.10919 16.101 9.1444 14.7747 9.1023 14.1726C9.0602 13.5705 9.10192 12.5986 9.18906 12.0147C9.2762 11.4309 9.22684 11.2478 9.50051 10.7828C9.77418 10.3178 9.73886 10.4659 10.8857 8.69792C12.0325 6.92994 11.7337 5.14022 11.7337 5.14022C11.6796 4.36608 11.2879 3.07873 10.3073 2.06002C9.32658 1.04132 8.48064 0.772927 7.98856 0.598069C7.49648 0.423212 6.75166 0.306972 5.98399 0.360652C5.21632 0.414333 4.79722 0.511879 4.01833 0.875695C3.23945 1.23951 2.5444 1.75669 1.91265 2.65613C1.17673 3.70388 0.868853 4.91732 0.937548 5.89971C1.00624 6.8821 1.14284 7.8552 1.8237 8.70379C2.50457 9.55239 3.00558 9.46277 3.28299 9.44337C3.56041 9.42397 3.81373 9.25613 4.01872 9.04163C4.2237 8.82712 4.46596 8.27033 4.50782 7.99748C4.50782 7.99748 4.66572 6.73539 4.67431 6.662C4.6829 6.58861 4.69494 6.56502 4.73556 6.55763C4.7813 6.54931 4.83328 6.58265 4.86279 6.61243C4.89229 6.64221 4.94611 6.69304 5.16329 6.91441C5.38046 7.13579 5.75885 7.53241 6.48195 7.48185C7.20505 7.43128 7.49937 6.86934 7.57691 6.73654C7.65446 6.60374 8.26688 5.41904 8.26688 5.41904C8.3279 5.29831 8.42269 5.37735 8.47546 5.40446C8.59239 5.46452 8.85081 5.60021 8.90766 5.62899C8.99704 5.67424 9.02549 5.68899 9.02549 5.68899L9.01726 5.57129L8.87766 3.57482C8.87291 3.50691 8.86689 3.42089 8.85262 3.41279C8.83834 3.40469 8.77324 3.43654 8.71149 3.47725C8.64975 3.51797 7.48661 4.28169 6.97788 4.63117C7.14341 4.71968 7.44194 4.87167 7.54642 4.92806C7.64113 4.97916 7.68714 5.0274 7.65066 5.10274C7.61418 5.17808 7.18748 5.98584 7.08615 6.17945C6.98481 6.37306 6.63512 6.66592 6.42592 6.68054C6.31223 6.68849 6.0088 6.73701 5.58994 6.29317C5.17107 5.84934 4.97368 5.51897 4.50524 5.68208C4.03679 5.8452 3.98979 6.09837 3.87563 6.99536C3.72744 8.1596 3.5812 8.47958 3.22058 8.5509C2.85997 8.62223 2.56324 8.36548 2.29628 7.81548C2.02932 7.26549 1.78556 6.63275 1.7516 5.84279C1.71765 5.05283 2.08227 3.51318 3.12565 2.55311C4.16903 1.59304 5.1001 1.31412 6.04604 1.24797C6.99198 1.18183 7.995 1.3437 9.11118 2.14366C10.2274 2.94362 10.852 4.36026 10.9106 5.19778C10.9691 6.03531 10.9836 6.43918 10.7194 7.23558C10.4552 8.03198 9.90208 8.7485 9.69538 8.99497C9.48869 9.24144 8.84504 10.2145 8.636 10.6977C8.42696 11.1809 8.32095 11.4294 8.26973 12.2655C8.21851 13.1016 8.20424 13.0935 8.2837 14.2298C8.36316 15.3661 7.36658 15.4358 7.03975 15.4587C6.71291 15.4815 5.68905 15.5531 5.60959 14.4168C5.53013 13.2805 5.44626 12.9497 5.32276 12.4716C5.19926 11.9934 4.95765 11.237 4.72428 10.9712C4.49091 10.7055 4.27018 10.6208 4.11427 10.6044C3.97424 10.5897 3.73086 10.6504 3.67829 10.8397Z" fill="white"/>
</svg>
