<svg xmlns="http://www.w3.org/2000/svg" viewBox="0 0 14 14">
  <defs/>
  <path fill="#708090" fill-rule="nonzero" d="M6.781 13.674A6.78 6.78 0 106.782.113a6.78 6.78 0 000 13.561zm.766-5.25H6.016a.328.328 0 01-.329-.328v-.109c0-1.123.852-1.572 1.495-1.932.551-.31.89-.52.89-.93 0-.54-.691-.9-1.25-.9-.744 0-1.078.359-1.567.978a.328.328 0 01-.456.059l-.948-.72a.329.329 0 01-.075-.444c.747-1.116 1.697-1.744 3.187-1.744 1.541 0 3.187 1.203 3.187 2.79 0 2.105-2.275 2.138-2.275 2.916v.036a.328.328 0 01-.328.328zm-.766 3.227a1.26 1.26 0 01-1.258-1.258 1.26 1.26 0 011.258-1.258 1.26 1.26 0 011.258 1.258 1.26 1.26 0 01-1.258 1.258z"/>
</svg>