<svg xmlns="http://www.w3.org/2000/svg" width="20" height="20"><path d="M17.857 20C19.04 20 20 19.04 20 17.857V2.143C20 .96 19.04 0 17.857 0H2.143C.96 0 0 .96 0 2.143v15.714C0 19.04.96 20 2.143 20h15.714zm-.268-2.143H2.411a.268.268 0 01-.268-.268V2.411c0-.148.12-.268.268-.268h15.178c.148 0 .268.12.268.268v15.178c0 .148-.12.268-.268.268zm-6.875-2.143c.295 0 .536-.24.536-.535V11.25h3.929a.537.537 0 00.535-.536V9.286a.536.536 0 00-.535-.536H11.25V4.821a.537.537 0 00-.536-.535H9.286a.536.536 0 00-.536.535V8.75H4.821a.537.537 0 00-.535.536v1.428c0 .295.24.536.535.536H8.75v3.929c0 .294.241.535.536.535h1.428z" fill="#FFF" fill-rule="nonzero"/></svg>