<svg width="36" height="37" viewBox="0 0 36 37" fill="none" xmlns="http://www.w3.org/2000/svg">
<path d="M36 18.5C36 28.441 27.941 36.5 18 36.5C8.06 36.5 0 28.441 0 18.5C0 8.56 8.06 0.5 18 0.5C27.941 0.5 36 8.56 36 18.5Z" fill="#FFCC4D"/>
<path d="M11.5 20.5C12.8807 20.5 14 18.933 14 17C14 15.067 12.8807 13.5 11.5 13.5C10.1193 13.5 9 15.067 9 17C9 18.933 10.1193 20.5 11.5 20.5Z" fill="#664500"/>
<path d="M24.5 20.5C25.8807 20.5 27 18.933 27 17C27 15.067 25.8807 13.5 24.5 13.5C23.1193 13.5 22 15.067 22 17C22 18.933 23.1193 20.5 24.5 20.5Z" fill="#664500"/>
<path d="M25 26.5H11C10.448 26.5 10 26.053 10 25.5C10 24.947 10.448 24.5 11 24.5H25C25.553 24.5 26 24.947 26 25.5C26 26.053 25.553 26.5 25 26.5Z" fill="#664500"/>
</svg>
