<svg width="17" height="16" viewBox="0 0 17 16" fill="none" xmlns="http://www.w3.org/2000/svg">
<g clip-path="url(#clip0_1_16558)">
<path d="M11.8125 5.17428C12.8298 5.10315 13.5968 4.2208 13.5256 3.20351C13.4545 2.18621 12.5722 1.4192 11.5549 1.49034C10.5376 1.56147 9.77056 2.44382 9.84169 3.46111C9.91283 4.47841 10.7952 5.24542 11.8125 5.17428Z" stroke="white" stroke-width="1.05513" stroke-linecap="round" stroke-linejoin="round"/>
<path d="M4.74557 9.98727C5.76287 9.91613 6.52988 9.03379 6.45874 8.01649C6.38761 6.9992 5.50526 6.23219 4.48797 6.30333C3.47067 6.37446 2.70366 7.25681 2.7748 8.2741C2.84594 9.29139 3.72828 10.0584 4.74557 9.98727Z" stroke="white" stroke-width="1.05513" stroke-linecap="round" stroke-linejoin="round"/>
<path d="M12.414 13.771C13.4313 13.6998 14.1983 12.8175 14.1272 11.8002C14.0561 10.7829 13.1737 10.0159 12.1564 10.087C11.1391 10.1582 10.3721 11.0405 10.4433 12.0578C10.5144 13.0751 11.3967 13.8421 12.414 13.771Z" stroke="white" stroke-width="1.05513" stroke-linecap="round" stroke-linejoin="round"/>
<path d="M6.27295 8.96143L10.6374 11.1119" stroke="white" stroke-width="1.05513" stroke-linecap="round" stroke-linejoin="round"/>
<path d="M10.1581 4.37125L6.14158 7.10774" stroke="white" stroke-width="1.05513" stroke-linecap="round" stroke-linejoin="round"/>
</g>
<defs>
<clipPath id="clip0_1_16558">
<rect width="14.7718" height="14.7718" fill="white" transform="translate(0.416504 1.03613) rotate(-4)"/>
</clipPath>
</defs>
</svg>
