<svg width="862" height="419" viewBox="0 0 862 419" fill="none" xmlns="http://www.w3.org/2000/svg">
<path opacity="0.9" d="M360.905 42.36C358.079 45.16 354.639 46.56 350.585 46.56C346.532 46.56 343.092 45.16 340.265 42.36C337.465 39.5333 336.065 36.08 336.065 32C336.065 27.92 337.465 24.48 340.265 21.68C343.092 18.8533 346.532 17.44 350.585 17.44C354.639 17.44 358.079 18.8533 360.905 21.68C363.732 24.48 365.145 27.92 365.145 32C365.145 36.08 363.732 39.5333 360.905 42.36ZM344.145 38.6C345.879 40.3067 348.025 41.16 350.585 41.16C353.145 41.16 355.292 40.3067 357.025 38.6C358.759 36.8667 359.625 34.6667 359.625 32C359.625 29.3333 358.759 27.1333 357.025 25.4C355.292 23.6667 353.145 22.8 350.585 22.8C348.025 22.8 345.879 23.6667 344.145 25.4C342.412 27.1333 341.545 29.3333 341.545 32C341.545 34.6667 342.412 36.8667 344.145 38.6ZM379.105 25.44C381.292 25.44 383.092 26.1733 384.505 27.64C385.945 29.1067 386.665 31.1333 386.665 33.72V46H381.505V34.36C381.505 33.0267 381.145 32.0133 380.425 31.32C379.705 30.6 378.745 30.24 377.545 30.24C376.212 30.24 375.145 30.6533 374.345 31.48C373.545 32.3067 373.145 33.5467 373.145 35.2V46H367.985V18H373.145V28.24C374.398 26.3733 376.385 25.44 379.105 25.44ZM410.591 25.44C412.778 25.44 414.578 26.1733 415.991 27.64C417.431 29.1067 418.151 31.1333 418.151 33.72V46H412.991V34.36C412.991 33.0267 412.631 32.0133 411.911 31.32C411.191 30.6 410.231 30.24 409.031 30.24C407.698 30.24 406.631 30.6533 405.831 31.48C405.031 32.3067 404.631 33.5467 404.631 35.2V46H399.471V26H404.631V28.24C405.884 26.3733 407.871 25.44 410.591 25.44ZM438.797 43.52C436.744 45.5467 434.237 46.56 431.277 46.56C428.317 46.56 425.81 45.5467 423.757 43.52C421.73 41.4667 420.717 38.96 420.717 36C420.717 33.04 421.73 30.5467 423.757 28.52C425.81 26.4667 428.317 25.44 431.277 25.44C434.237 25.44 436.744 26.4667 438.797 28.52C440.85 30.5467 441.877 33.04 441.877 36C441.877 38.96 440.85 41.4667 438.797 43.52ZM427.397 39.96C428.437 41 429.73 41.52 431.277 41.52C432.824 41.52 434.117 41 435.157 39.96C436.197 38.92 436.717 37.6 436.717 36C436.717 34.4 436.197 33.08 435.157 32.04C434.117 31 432.824 30.48 431.277 30.48C429.73 30.48 428.437 31 427.397 32.04C426.384 33.08 425.877 34.4 425.877 36C425.877 37.6 426.384 38.92 427.397 39.96ZM448.505 45.52C447.839 46.1867 447.039 46.52 446.105 46.52C445.172 46.52 444.372 46.1867 443.705 45.52C443.039 44.8533 442.705 44.0533 442.705 43.12C442.705 42.1867 443.039 41.3867 443.705 40.72C444.372 40.0533 445.172 39.72 446.105 39.72C447.039 39.72 447.839 40.0533 448.505 40.72C449.172 41.3867 449.505 42.1867 449.505 43.12C449.505 44.0533 449.172 44.8533 448.505 45.52ZM458.408 45.52C457.742 46.1867 456.942 46.52 456.008 46.52C455.075 46.52 454.275 46.1867 453.608 45.52C452.942 44.8533 452.608 44.0533 452.608 43.12C452.608 42.1867 452.942 41.3867 453.608 40.72C454.275 40.0533 455.075 39.72 456.008 39.72C456.942 39.72 457.742 40.0533 458.408 40.72C459.075 41.3867 459.408 42.1867 459.408 43.12C459.408 44.0533 459.075 44.8533 458.408 45.52ZM468.312 45.52C467.645 46.1867 466.845 46.52 465.912 46.52C464.978 46.52 464.178 46.1867 463.512 45.52C462.845 44.8533 462.512 44.0533 462.512 43.12C462.512 42.1867 462.845 41.3867 463.512 40.72C464.178 40.0533 464.978 39.72 465.912 39.72C466.845 39.72 467.645 40.0533 468.312 40.72C468.978 41.3867 469.312 42.1867 469.312 43.12C469.312 44.0533 468.978 44.8533 468.312 45.52Z" fill="white"/>
<path d="M526.5 35C526.5 47.4262 516.426 57.5 504 57.5C491.575 57.5 481.5 47.4262 481.5 35C481.5 22.575 491.575 12.5 504 12.5C516.426 12.5 526.5 22.575 526.5 35Z" fill="#FFCC4D"/>
<path d="M495.875 37.5C497.601 37.5 499 35.5412 499 33.125C499 30.7088 497.601 28.75 495.875 28.75C494.149 28.75 492.75 30.7088 492.75 33.125C492.75 35.5412 494.149 37.5 495.875 37.5Z" fill="#664500"/>
<path d="M512.125 37.5C513.851 37.5 515.25 35.5412 515.25 33.125C515.25 30.7088 513.851 28.75 512.125 28.75C510.399 28.75 509 30.7088 509 33.125C509 35.5412 510.399 37.5 512.125 37.5Z" fill="#664500"/>
<path d="M512.75 45H495.25C494.56 45 494 44.4412 494 43.75C494 43.0588 494.56 42.5 495.25 42.5H512.75C513.441 42.5 514 43.0588 514 43.75C514 44.4412 513.441 45 512.75 45Z" fill="#664500"/>
<g opacity="0.9">
<path d="M267.849 180.078C262.511 180.078 258.019 178.897 254.374 176.536C250.73 174.123 248.163 170.864 246.674 166.757L255.76 161.444C257.865 166.937 261.997 169.683 268.157 169.683C271.135 169.683 273.316 169.144 274.702 168.066C276.088 166.988 276.781 165.628 276.781 163.985C276.781 162.086 275.934 160.623 274.24 159.596C272.546 158.518 269.518 157.363 265.154 156.131C262.742 155.412 260.688 154.694 258.994 153.975C257.352 153.256 255.683 152.307 253.989 151.126C252.347 149.894 251.089 148.354 250.216 146.506C249.344 144.658 248.907 142.502 248.907 140.038C248.907 135.161 250.627 131.286 254.066 128.411C257.557 125.485 261.741 124.022 266.617 124.022C270.981 124.022 274.805 125.1 278.09 127.256C281.427 129.361 284.019 132.312 285.867 136.111L276.935 141.27C274.779 136.65 271.34 134.34 266.617 134.34C264.41 134.34 262.665 134.853 261.381 135.88C260.149 136.855 259.533 138.139 259.533 139.73C259.533 141.424 260.226 142.81 261.612 143.888C263.05 144.915 265.77 146.044 269.774 147.276C271.417 147.789 272.649 148.2 273.47 148.508C274.343 148.765 275.498 149.201 276.935 149.817C278.424 150.382 279.553 150.921 280.323 151.434C281.145 151.947 282.069 152.64 283.095 153.513C284.122 154.386 284.892 155.284 285.405 156.208C285.97 157.132 286.432 158.261 286.791 159.596C287.202 160.879 287.407 162.291 287.407 163.831C287.407 168.81 285.585 172.763 281.94 175.689C278.347 178.615 273.65 180.078 267.849 180.078ZM326.191 174.226C322.238 178.127 317.413 180.078 311.715 180.078C306.017 180.078 301.191 178.127 297.239 174.226C293.337 170.273 291.387 165.448 291.387 159.75C291.387 154.052 293.337 149.252 297.239 145.351C301.191 141.398 306.017 139.422 311.715 139.422C317.413 139.422 322.238 141.398 326.191 145.351C330.143 149.252 332.12 154.052 332.12 159.75C332.12 165.448 330.143 170.273 326.191 174.226ZM304.246 167.373C306.248 169.375 308.737 170.376 311.715 170.376C314.692 170.376 317.182 169.375 319.184 167.373C321.186 165.371 322.187 162.83 322.187 159.75C322.187 156.67 321.186 154.129 319.184 152.127C317.182 150.125 314.692 149.124 311.715 149.124C308.737 149.124 306.248 150.125 304.246 152.127C302.295 154.129 301.32 156.67 301.32 159.75C301.32 162.83 302.295 165.371 304.246 167.373ZM380.148 139.422C384.563 139.422 388.079 140.859 390.697 143.734C393.367 146.609 394.701 150.459 394.701 155.284V179H384.768V155.977C384.768 153.667 384.204 151.87 383.074 150.587C381.945 149.304 380.354 148.662 378.3 148.662C376.042 148.662 374.271 149.406 372.987 150.895C371.755 152.384 371.139 154.54 371.139 157.363V179H361.206V155.977C361.206 153.667 360.642 151.87 359.512 150.587C358.383 149.304 356.792 148.662 354.738 148.662C352.531 148.662 350.76 149.406 349.425 150.895C348.142 152.384 347.5 154.54 347.5 157.363V179H337.567V140.5H347.5V144.581C349.81 141.142 353.378 139.422 358.203 139.422C362.926 139.422 366.417 141.27 368.675 144.966C371.242 141.27 375.066 139.422 380.148 139.422ZM409.991 163.831C411.325 168.656 414.944 171.069 420.848 171.069C424.646 171.069 427.521 169.786 429.472 167.219L437.48 171.839C433.681 177.332 428.086 180.078 420.694 180.078C414.328 180.078 409.221 178.153 405.371 174.303C401.521 170.453 399.596 165.602 399.596 159.75C399.596 153.949 401.495 149.124 405.294 145.274C409.092 141.373 413.969 139.422 419.924 139.422C425.57 139.422 430.216 141.373 433.861 145.274C437.557 149.175 439.405 154.001 439.405 159.75C439.405 161.033 439.276 162.394 439.02 163.831H409.991ZM409.837 156.131H429.472C428.907 153.513 427.726 151.562 425.93 150.279C424.184 148.996 422.182 148.354 419.924 148.354C417.254 148.354 415.047 149.047 413.302 150.433C411.556 151.768 410.401 153.667 409.837 156.131ZM465.693 150.048H456.992V166.064C456.992 167.399 457.326 168.374 457.993 168.99C458.66 169.606 459.636 169.965 460.919 170.068C462.202 170.119 463.794 170.094 465.693 169.991V179C458.866 179.77 454.04 179.128 451.217 177.075C448.445 175.022 447.059 171.351 447.059 166.064V150.048H440.36V140.5H447.059V132.723L456.992 129.72V140.5H465.693V150.048ZM492.562 139.422C496.772 139.422 500.237 140.834 502.957 143.657C505.729 146.48 507.115 150.382 507.115 155.361V179H497.182V156.593C497.182 154.026 496.489 152.076 495.103 150.741C493.717 149.355 491.869 148.662 489.559 148.662C486.993 148.662 484.939 149.458 483.399 151.049C481.859 152.64 481.089 155.027 481.089 158.21V179H471.156V125.1H481.089V144.812C483.502 141.219 487.326 139.422 492.562 139.422ZM518.985 135.88C517.342 135.88 515.905 135.29 514.673 134.109C513.492 132.877 512.902 131.44 512.902 129.797C512.902 128.154 513.492 126.717 514.673 125.485C515.905 124.253 517.342 123.637 518.985 123.637C520.679 123.637 522.116 124.253 523.297 125.485C524.529 126.717 525.145 128.154 525.145 129.797C525.145 131.44 524.529 132.877 523.297 134.109C522.116 135.29 520.679 135.88 518.985 135.88ZM514.057 179V140.5H523.99V179H514.057ZM552.947 139.422C557.156 139.422 560.621 140.834 563.342 143.657C566.114 146.48 567.5 150.382 567.5 155.361V179H557.567V156.593C557.567 154.026 556.874 152.076 555.488 150.741C554.102 149.355 552.254 148.662 549.944 148.662C547.377 148.662 545.324 149.458 543.784 151.049C542.244 152.64 541.474 155.027 541.474 158.21V179H531.541V140.5H541.474V144.812C543.887 141.219 547.711 139.422 552.947 139.422ZM603.933 140.5H613.635V177.152C613.635 183.107 611.658 187.65 607.706 190.781C603.804 193.912 599.082 195.478 593.538 195.478C589.38 195.478 585.709 194.682 582.527 193.091C579.395 191.5 576.983 189.164 575.289 186.084L583.759 181.233C585.709 184.826 589.072 186.623 593.846 186.623C596.977 186.623 599.441 185.802 601.238 184.159C603.034 182.516 603.933 180.181 603.933 177.152V172.994C601.007 176.895 596.9 178.846 591.613 178.846C586.171 178.846 581.603 176.947 577.907 173.148C574.262 169.298 572.44 164.627 572.44 159.134C572.44 153.693 574.288 149.047 577.984 145.197C581.68 141.347 586.223 139.422 591.613 139.422C596.9 139.422 601.007 141.373 603.933 145.274V140.5ZM585.376 166.757C587.429 168.708 590.021 169.683 593.153 169.683C596.284 169.683 598.851 168.708 600.853 166.757C602.906 164.755 603.933 162.214 603.933 159.134C603.933 156.105 602.906 153.616 600.853 151.665C598.851 149.663 596.284 148.662 593.153 148.662C590.021 148.662 587.429 149.663 585.376 151.665C583.374 153.616 582.373 156.105 582.373 159.134C582.373 162.214 583.374 164.755 585.376 166.757ZM266.073 235.5H276.622L264.379 274H254.908L247.824 250.669L240.74 274H231.269L219.026 235.5H229.575L236.12 259.139L243.127 235.5H252.521L259.528 259.216L266.073 235.5ZM287.325 258.831C288.659 263.656 292.278 266.069 298.182 266.069C301.98 266.069 304.855 264.786 306.806 262.219L314.814 266.839C311.015 272.332 305.42 275.078 298.028 275.078C291.662 275.078 286.555 273.153 282.705 269.303C278.855 265.453 276.93 260.602 276.93 254.75C276.93 248.949 278.829 244.124 282.628 240.274C286.426 236.373 291.303 234.422 297.258 234.422C302.904 234.422 307.55 236.373 311.195 240.274C314.891 244.175 316.739 249.001 316.739 254.75C316.739 256.033 316.61 257.394 316.354 258.831H287.325ZM287.171 251.131H306.806C306.241 248.513 305.06 246.562 303.264 245.279C301.518 243.996 299.516 243.354 297.258 243.354C294.588 243.354 292.381 244.047 290.636 245.433C288.89 246.768 287.735 248.667 287.171 251.131ZM343.539 234.422C347.748 234.422 351.213 235.834 353.934 238.657C356.706 241.48 358.092 245.382 358.092 250.361V274H348.159V251.593C348.159 249.026 347.466 247.076 346.08 245.741C344.694 244.355 342.846 243.662 340.536 243.662C337.969 243.662 335.916 244.458 334.376 246.049C332.836 247.64 332.066 250.027 332.066 253.21V274H322.133V235.5H332.066V239.812C334.478 236.219 338.303 234.422 343.539 234.422ZM387.055 245.048H378.354V261.064C378.354 262.399 378.688 263.374 379.355 263.99C380.022 264.606 380.998 264.965 382.281 265.068C383.564 265.119 385.156 265.094 387.055 264.991V274C380.228 274.77 375.402 274.128 372.579 272.075C369.807 270.022 368.421 266.351 368.421 261.064V245.048H361.722V235.5H368.421V227.723L378.354 224.72V235.5H387.055V245.048Z" fill="white"/>
</g>
<g opacity="0.9">
<path d="M506.848 286.039C508.321 283.859 510.225 282.415 512.559 281.708C514.943 281.013 517.407 280.971 519.953 281.582L517.366 292.364C514.505 291.308 511.716 291.272 508.998 292.257C506.331 293.253 504.566 295.549 503.704 299.143L499.411 317.038L489.752 314.72L498.734 277.283L508.392 279.6L506.848 286.039Z" fill="white"/>
<path d="M506.848 286.039C508.321 283.859 510.225 282.415 512.559 281.708C514.943 281.013 517.407 280.971 519.953 281.582L517.366 292.364C514.505 291.308 511.716 291.272 508.998 292.257C506.331 293.253 504.566 295.549 503.704 299.143L499.411 317.038L489.752 314.72L498.734 277.283L508.392 279.6L506.848 286.039Z" fill="#C72B43" fill-opacity="0.2"/>
</g>
<g opacity="0.9">
<path d="M464.982 246.419L475.24 248.88L454.353 283.461L445.143 281.252L443.698 256.912L431.366 277.946L422.156 275.737L419.233 235.443L429.491 237.904L430.341 262.418L442.669 241.066L451.804 243.257L453.085 267.953L464.982 246.419Z" fill="white"/>
<path d="M464.982 246.419L475.24 248.88L454.353 283.461L445.143 281.252L443.698 256.912L431.366 277.946L422.156 275.737L419.233 235.443L429.491 237.904L430.341 262.418L442.669 241.066L451.804 243.257L453.085 267.953L464.982 246.419Z" fill="#C72B43" fill-opacity="0.05"/>
</g>
<g opacity="0.9">
<path d="M576.63 299.699C571.876 302.57 566.729 303.342 561.188 302.012C555.647 300.683 551.41 297.66 548.477 292.945C545.605 288.191 544.834 283.044 546.163 277.503C547.493 271.962 550.509 267.75 555.213 264.866C559.979 261.945 565.132 261.149 570.673 262.478C576.214 263.807 580.445 266.855 583.366 271.621C586.3 276.336 587.102 281.465 585.772 287.006C584.443 292.546 581.396 296.777 576.63 299.699ZM556.889 287.915C558.369 290.329 560.556 291.883 563.452 292.578C566.347 293.273 569.001 292.88 571.415 291.4C573.829 289.921 575.395 287.683 576.114 284.688C576.832 281.693 576.451 278.989 574.972 276.575C573.492 274.161 571.305 272.607 568.409 271.912C565.514 271.218 562.86 271.61 560.446 273.09C558.082 274.582 556.541 276.825 555.822 279.82C555.104 282.815 555.459 285.514 556.889 287.915Z" fill="white"/>
<path d="M576.63 299.699C571.876 302.57 566.729 303.342 561.188 302.012C555.647 300.683 551.41 297.66 548.477 292.945C545.605 288.191 544.834 283.044 546.163 277.503C547.493 271.962 550.509 267.75 555.213 264.866C559.979 261.945 565.132 261.149 570.673 262.478C576.214 263.807 580.445 266.855 583.366 271.621C586.3 276.336 587.102 281.465 585.772 287.006C584.443 292.546 581.396 296.777 576.63 299.699ZM556.889 287.915C558.369 290.329 560.556 291.883 563.452 292.578C566.347 293.273 569.001 292.88 571.415 291.4C573.829 289.921 575.395 287.683 576.114 284.688C576.832 281.693 576.451 278.989 574.972 276.575C573.492 274.161 571.305 272.607 568.409 271.912C565.514 271.218 562.86 271.61 560.446 273.09C558.082 274.582 556.541 276.825 555.822 279.82C555.104 282.815 555.459 285.514 556.889 287.915Z" fill="#C72B43" fill-opacity="0.35"/>
</g>
<g opacity="0.9">
<path d="M633.214 293.332C637.379 292.722 641.012 293.617 644.113 296.017C647.264 298.409 649.201 302.068 649.922 306.995L653.346 330.385L643.518 331.824L640.272 309.653C639.9 307.113 638.932 305.284 637.368 304.164C635.795 302.993 633.867 302.575 631.581 302.91C629.041 303.281 627.125 304.366 625.832 306.164C624.538 307.961 624.122 310.435 624.583 313.584L627.595 334.155L617.766 335.593L612.19 297.499L622.018 296.061L622.643 300.327C624.509 296.422 628.033 294.091 633.214 293.332Z" fill="white"/>
<path d="M633.214 293.332C637.379 292.722 641.012 293.617 644.113 296.017C647.264 298.409 649.201 302.068 649.922 306.995L653.346 330.385L643.518 331.824L640.272 309.653C639.9 307.113 638.932 305.284 637.368 304.164C635.795 302.993 633.867 302.575 631.581 302.91C629.041 303.281 627.125 304.366 625.832 306.164C624.538 307.961 624.122 310.435 624.583 313.584L627.595 334.155L617.766 335.593L612.19 297.499L622.018 296.061L622.643 300.327C624.509 296.422 628.033 294.091 633.214 293.332Z" fill="#C72B43" fill-opacity="0.5"/>
</g>
<g opacity="0.9">
<path d="M710.243 319.946L719.496 322.865L708.47 357.819C706.678 363.498 703.427 367.236 698.715 369.033C694.053 370.846 689.078 370.918 683.79 369.25C679.825 367.999 676.564 366.136 674.008 363.661C671.5 361.201 669.902 358.248 669.213 354.801L678.75 352.723C679.529 356.737 682.195 359.462 686.748 360.898C689.734 361.84 692.331 361.798 694.539 360.772C696.747 359.746 698.306 357.789 699.217 354.9L700.468 350.935C696.504 353.775 692.001 354.4 686.958 352.809C681.769 351.172 677.983 347.987 675.601 343.252C673.284 338.484 672.951 333.481 674.603 328.243C676.24 323.053 679.4 319.179 684.083 316.619C688.766 314.059 693.678 313.59 698.818 315.212C703.861 316.802 707.19 319.898 708.807 324.499L710.243 319.946ZM684.647 339.404C686.018 341.882 688.197 343.592 691.183 344.534C694.17 345.476 696.911 345.318 699.407 344.06C701.967 342.769 703.711 340.654 704.638 337.717C705.549 334.829 705.319 332.145 703.947 329.667C702.64 327.156 700.494 325.429 697.507 324.487C694.521 323.545 691.748 323.72 689.187 325.011C686.691 326.269 684.987 328.342 684.076 331.231C683.15 334.168 683.34 336.893 684.647 339.404Z" fill="white"/>
<path d="M710.243 319.946L719.496 322.865L708.47 357.819C706.678 363.498 703.427 367.236 698.715 369.033C694.053 370.846 689.078 370.918 683.79 369.25C679.825 367.999 676.564 366.136 674.008 363.661C671.5 361.201 669.902 358.248 669.213 354.801L678.75 352.723C679.529 356.737 682.195 359.462 686.748 360.898C689.734 361.84 692.331 361.798 694.539 360.772C696.747 359.746 698.306 357.789 699.217 354.9L700.468 350.935C696.504 353.775 692.001 354.4 686.958 352.809C681.769 351.172 677.983 347.987 675.601 343.252C673.284 338.484 672.951 333.481 674.603 328.243C676.24 323.053 679.4 319.179 684.083 316.619C688.766 314.059 693.678 313.59 698.818 315.212C703.861 316.802 707.19 319.898 708.807 324.499L710.243 319.946ZM684.647 339.404C686.018 341.882 688.197 343.592 691.183 344.534C694.17 345.476 696.911 345.318 699.407 344.06C701.967 342.769 703.711 340.654 704.638 337.717C705.549 334.829 705.319 332.145 703.947 329.667C702.64 327.156 700.494 325.429 697.507 324.487C694.521 323.545 691.748 323.72 689.187 325.011C686.691 326.269 684.987 328.342 684.076 331.231C683.15 334.168 683.34 336.893 684.647 339.404Z" fill="#C72B43" fill-opacity="0.75"/>
</g>
<g opacity="0.9">
<path d="M750.609 380.005L765.419 365.816L777.561 356.344L784.902 365.754L772.76 375.226L755.439 386.198L750.609 380.005ZM742.326 397.305C740.525 397.083 739.072 396.263 737.967 394.847C736.862 393.43 736.421 391.821 736.643 390.02C736.866 388.219 737.685 386.766 739.102 385.66C740.519 384.555 742.128 384.114 743.929 384.337C745.73 384.559 747.183 385.379 748.288 386.796C749.393 388.212 749.835 389.821 749.612 391.622C749.389 393.423 748.57 394.877 747.153 395.982C745.737 397.087 744.128 397.528 742.326 397.305Z" fill="white"/>
<path d="M750.609 380.005L765.419 365.816L777.561 356.344L784.902 365.754L772.76 375.226L755.439 386.198L750.609 380.005ZM742.326 397.305C740.525 397.083 739.072 396.263 737.967 394.847C736.862 393.43 736.421 391.821 736.643 390.02C736.866 388.219 737.685 386.766 739.102 385.66C740.519 384.555 742.128 384.114 743.929 384.337C745.73 384.559 747.183 385.379 748.288 386.796C749.393 388.212 749.835 389.821 749.612 391.622C749.389 393.423 748.57 394.877 747.153 395.982C745.737 397.087 744.128 397.528 742.326 397.305Z" fill="#C72B43" fill-opacity="0.9"/>
</g>
</svg>
