<svg width="36" height="32" viewBox="0 0 36 32" fill="none" xmlns="http://www.w3.org/2000/svg">
<path d="M12.9104 28.75C12.6344 30.959 10.6194 31.75 8.41043 31.75C6.20143 31.75 4.63443 29.959 4.91043 27.75L5.91043 18.75C6.18643 16.541 8.20143 14.75 10.4104 14.75C12.6194 14.75 16.8784 14.75 13.9104 18.75C10.9424 22.75 12.9104 28.75 12.9104 28.75Z" fill="#BE1931"/>
<path d="M35.8258 12.75C35.8258 19.652 34.2818 25.25 32.3758 25.25C30.4708 25.25 11.9258 19.652 11.9258 12.75C11.9258 5.847 30.4708 0.25 32.3758 0.25C34.2818 0.25 35.8258 5.847 35.8258 12.75Z" fill="#CCD6DD"/>
<path d="M32.3758 25.25C34.2812 25.25 35.8258 19.6536 35.8258 12.75C35.8258 5.84644 34.2812 0.25 32.3758 0.25C30.4704 0.25 28.9258 5.84644 28.9258 12.75C28.9258 19.6536 30.4704 25.25 32.3758 25.25Z" fill="#66757F"/>
<path d="M17.9258 19.75L3.92578 18.75C-1.07422 18.75 -1.07422 6.75 3.92578 6.75L17.9258 5.75C14.9258 8.75 14.9258 16.75 17.9258 19.75Z" fill="#DD2E44"/>
<path d="M31.3242 17.0983C32.1526 17.0983 32.8242 15.1517 32.8242 12.7503C32.8242 10.349 32.1526 8.40234 31.3242 8.40234C30.4958 8.40234 29.8242 10.349 29.8242 12.7503C29.8242 15.1517 30.4958 17.0983 31.3242 17.0983Z" fill="#99AAB5"/>
</svg>
