<svg width="105" height="106" viewBox="0 0 105 106" fill="none" xmlns="http://www.w3.org/2000/svg">
<g filter="url(#filter0_ii_1053_55678)">
<circle cx="52.5" cy="52.6152" r="52.5" fill="#FFA828"/>
</g>
<g filter="url(#filter1_ddi_1053_55678)">
<path d="M38.6002 40.1328C41.9197 34.3722 46.726 29.5767 52.4951 26.2703C46.9499 23.0328 40.3483 21.1777 33.464 21.1777C33.464 28.0929 35.3357 34.5709 38.6002 40.1328Z" fill="white"/>
<path d="M52.4951 26.2703C58.1304 29.5604 62.8301 34.2784 66.0983 39.928C69.2655 34.4527 71.0885 28.1024 71.1152 21.3283C64.3385 21.3284 57.9813 23.126 52.4951 26.2703Z" fill="white"/>
<path d="M66.0983 39.928C62.7905 45.6462 58.0161 50.4099 52.2896 53.7048C57.7884 56.8687 64.3157 58.6783 71.1152 58.6783C71.1152 51.8478 69.289 45.4439 66.0983 39.928Z" fill="white"/>
<path d="M52.2896 53.7048C46.6315 50.4493 41.903 45.76 38.6002 40.1328C35.4522 45.5958 33.6411 52.0772 33.6146 58.8289C40.4139 58.8289 46.7909 56.8687 52.2896 53.7048Z" fill="white"/>
<path fill-rule="evenodd" clip-rule="evenodd" d="M62.8065 14.1824C60.4045 13.1301 56.6265 12.2832 52.2987 12.2793C48.438 12.2832 44.2862 13.1301 41.8842 14.1824C41.7819 14.2273 41.6765 14.2732 41.568 14.3204L41.5674 14.3206C40.0048 15.0007 37.8108 15.9556 35.2902 17.9261C37.4705 18.1863 39.6107 18.6012 41.6921 19.1593C45.3739 17.3414 48.998 16.7765 52.2987 16.7735C55.992 16.7766 59.6015 17.363 63.2744 19.2642C65.3254 18.722 67.4342 18.322 69.5896 18.0754C66.9897 16.0034 64.7249 15.0177 63.1234 14.3206C63.0147 14.2733 62.909 14.2273 62.8065 14.1824ZM74.404 22.9588C74.1527 25.0619 73.7552 27.12 73.2221 29.1228C74.9792 32.4773 75.8534 35.9536 75.8534 38.396C75.8534 42.6379 75.7846 44.6786 74.1795 48.5996C73.8912 49.3038 73.5571 49.9918 73.1963 50.6535C73.6872 52.4811 74.0649 54.3551 74.3217 56.2674L74.5006 56.0287C80.8749 47.5219 80.0036 38.396 80.0036 38.396C80.0036 34.6149 78.5963 28.3177 74.404 22.9588ZM65.1465 61.2529C66.7159 61.5894 68.3139 61.8453 69.9329 62.016C69.2938 62.8304 68.8454 63.3872 68.4909 63.8272L68.4907 63.8274C67.8152 64.6661 67.481 65.0809 66.8192 66.0489C65.6507 67.7581 65.4771 68.7111 65.1785 70.3508C65.0845 70.8669 64.9781 71.451 64.8244 72.1481C64.1823 75.0602 63.632 79.9442 63.632 82.9938C63.632 86.0407 62.9911 92.7041 52.2987 92.7159C42.1668 92.7041 41.0588 86.0407 41.0588 82.9938C41.0588 79.9442 40.5085 75.0602 39.8664 72.1481C39.7127 71.4511 39.6063 70.8669 39.5123 70.3508C39.2136 68.7111 39.04 67.7581 37.8715 66.0489C37.2098 65.0809 36.8756 64.6661 36.2001 63.8275L36.1992 63.8264L36.1985 63.8256L36.1982 63.8252C35.867 63.414 35.4537 62.9008 34.8796 62.1709C36.4866 61.9867 38.068 61.7127 39.6193 61.3567C40.6553 62.794 41.6441 64.2779 42.1792 65.3152C42.4336 65.8084 42.6864 66.2516 42.9321 66.6823L42.9323 66.6828C43.863 68.3147 44.6922 69.7687 45.1275 73.0883C45.1766 73.4625 45.2218 73.8029 45.2636 74.1168C45.6896 77.3223 45.7466 77.7517 45.7466 82.9938C45.7466 88.718 50.6237 88.7489 52.2987 88.7491C53.9737 88.7489 59.5047 88.718 59.5047 82.9938C59.5047 77.7517 59.5617 77.3223 59.9877 74.1168L59.9881 74.1144C60.0297 73.8012 60.0748 73.4615 60.1238 73.0883C60.6741 68.8922 61.2932 67.6769 62.5115 65.3152C63.0595 64.2529 64.0834 62.7222 65.1465 61.2529ZM30.4818 56.4177C30.7415 54.5255 31.1176 52.6654 31.6027 50.8499C31.2005 50.1284 30.8282 49.3738 30.5112 48.5996C28.9062 44.6786 28.8374 42.6379 28.8374 38.396C28.8374 35.9815 29.6917 32.5566 31.4088 29.2378C30.8688 27.2307 30.4652 25.1678 30.2084 23.0595C26.0769 28.3964 24.6871 34.6385 24.6871 38.396C24.6871 38.396 23.8158 47.5219 30.1901 56.0287C30.2889 56.1606 30.3861 56.2902 30.4818 56.4177Z" fill="white"/>
</g>
<defs>
<filter id="filter0_ii_1053_55678" x="-8.33333" y="-8.2181" width="121.667" height="121.667" filterUnits="userSpaceOnUse" color-interpolation-filters="sRGB">
<feFlood flood-opacity="0" result="BackgroundImageFix"/>
<feBlend mode="normal" in="SourceGraphic" in2="BackgroundImageFix" result="shape"/>
<feColorMatrix in="SourceAlpha" type="matrix" values="0 0 0 0 0 0 0 0 0 0 0 0 0 0 0 0 0 0 127 0" result="hardAlpha"/>
<feOffset dx="8.33333" dy="8.33333"/>
<feGaussianBlur stdDeviation="10.4167"/>
<feComposite in2="hardAlpha" operator="arithmetic" k2="-1" k3="1"/>
<feColorMatrix type="matrix" values="0 0 0 0 1 0 0 0 0 1 0 0 0 0 1 0 0 0 0.35 0"/>
<feBlend mode="normal" in2="shape" result="effect1_innerShadow_1053_55678"/>
<feColorMatrix in="SourceAlpha" type="matrix" values="0 0 0 0 0 0 0 0 0 0 0 0 0 0 0 0 0 0 127 0" result="hardAlpha"/>
<feOffset dx="-8.33333" dy="-8.33333"/>
<feGaussianBlur stdDeviation="10.4167"/>
<feComposite in2="hardAlpha" operator="arithmetic" k2="-1" k3="1"/>
<feColorMatrix type="matrix" values="0 0 0 0 0 0 0 0 0 0 0 0 0 0 0 0 0 0 0.25 0"/>
<feBlend mode="normal" in2="effect1_innerShadow_1053_55678" result="effect2_innerShadow_1053_55678"/>
</filter>
<filter id="filter1_ddi_1053_55678" x="19.2303" y="6.86263" width="65.6052" height="90.6449" filterUnits="userSpaceOnUse" color-interpolation-filters="sRGB">
<feFlood flood-opacity="0" result="BackgroundImageFix"/>
<feColorMatrix in="SourceAlpha" type="matrix" values="0 0 0 0 0 0 0 0 0 0 0 0 0 0 0 0 0 0 127 0" result="hardAlpha"/>
<feOffset dx="-1.25" dy="-1.25"/>
<feGaussianBlur stdDeviation="2.08333"/>
<feComposite in2="hardAlpha" operator="out"/>
<feColorMatrix type="matrix" values="0 0 0 0 1 0 0 0 0 0.826133 0 0 0 0 0.570833 0 0 0 1 0"/>
<feBlend mode="normal" in2="BackgroundImageFix" result="effect1_dropShadow_1053_55678"/>
<feColorMatrix in="SourceAlpha" type="matrix" values="0 0 0 0 0 0 0 0 0 0 0 0 0 0 0 0 0 0 127 0" result="hardAlpha"/>
<feOffset dx="0.625" dy="0.625"/>
<feGaussianBlur stdDeviation="2.08333"/>
<feComposite in2="hardAlpha" operator="out"/>
<feColorMatrix type="matrix" values="0 0 0 0 0.829167 0 0 0 0 0.555156 0 0 0 0 0.152014 0 0 0 1 0"/>
<feBlend mode="normal" in2="effect1_dropShadow_1053_55678" result="effect2_dropShadow_1053_55678"/>
<feBlend mode="normal" in="SourceGraphic" in2="effect2_dropShadow_1053_55678" result="shape"/>
<feColorMatrix in="SourceAlpha" type="matrix" values="0 0 0 0 0 0 0 0 0 0 0 0 0 0 0 0 0 0 127 0" result="hardAlpha"/>
<feOffset dx="1.25" dy="1.25"/>
<feGaussianBlur stdDeviation="2.08333"/>
<feComposite in2="hardAlpha" operator="arithmetic" k2="-1" k3="1"/>
<feColorMatrix type="matrix" values="0 0 0 0 0.904167 0 0 0 0 0.786374 0 0 0 0 0.61408 0 0 0 1 0"/>
<feBlend mode="normal" in2="shape" result="effect3_innerShadow_1053_55678"/>
</filter>
</defs>
</svg>
