<svg xmlns="http://www.w3.org/2000/svg" width="20" height="20"><path d="M5.114 19.502L10 16.934l4.886 2.568c.867.456 1.903-.276 1.735-1.26l-.935-5.439 3.951-3.85c.71-.692.318-1.9-.661-2.041l-5.462-.797-2.441-4.95c-.437-.881-1.705-.893-2.146 0l-2.441 4.95-5.462.797c-.98.142-1.372 1.35-.661 2.04l3.951 3.851-.935 5.44c-.168.983.868 1.72 1.735 1.26zm9.533-2.153L10 14.908l-4.647 2.441.886-5.174-3.76-3.663 5.196-.755L10 3.047l2.325 4.71 5.196.755-3.76 3.663.886 5.174z" fill="currentColor" fill-rule="nonzero"/></svg>