<svg width="37" height="36" viewBox="0 0 37 36" fill="none" xmlns="http://www.w3.org/2000/svg">
<path d="M11.6259 7.19655C11.5139 7.30855 11.4289 7.44355 11.3579 7.59155L11.3499 7.58355L0.133879 32.8495L0.144879 32.8605C-0.0631208 33.2635 0.284879 34.0835 0.997879 34.7975C1.71088 35.5105 2.53088 35.8585 2.93388 35.6505L2.94388 35.6605L28.2099 24.4435L28.2019 24.4345C28.3489 24.3645 28.4839 24.2795 28.5969 24.1655C30.1589 22.6035 27.6259 17.5385 22.9409 12.8525C18.2539 8.16655 13.1889 5.63455 11.6259 7.19655Z" fill="#DD2E44"/>
<path d="M13.0006 11.7075L0.416612 32.2135L0.134612 32.8485L0.145612 32.8595C-0.0623884 33.2625 0.285612 34.0825 0.998612 34.7965C1.23061 35.0285 1.47161 35.2045 1.70761 35.3535L17.0006 16.7075L13.0006 11.7075Z" fill="#EA596E"/>
<path d="M23.0119 12.7745C27.6819 17.4465 30.2749 22.4265 28.8009 23.8985C27.3279 25.3725 22.3479 22.7805 17.6749 18.1105C13.0039 13.4385 10.4119 8.45654 11.8849 6.98354C13.3589 5.51054 18.3389 8.10254 23.0119 12.7745Z" fill="#A0041E"/>
<path d="M18.5901 13.3175C18.3911 13.4785 18.1311 13.5625 17.8561 13.5325C16.9881 13.4385 16.2581 13.1365 15.7471 12.6595C15.2061 12.1545 14.9391 11.4765 15.0121 10.7975C15.1401 9.60555 16.3361 8.51155 18.3751 8.73155C19.1681 8.81655 19.5221 8.56155 19.5341 8.43955C19.5481 8.31855 19.2571 7.99355 18.4641 7.90755C17.5961 7.81355 16.8661 7.51155 16.3541 7.03455C15.8131 6.52955 15.5451 5.85155 15.6191 5.17255C15.7491 3.98055 16.9441 2.88655 18.9811 3.10755C19.5591 3.16955 19.8641 3.05055 19.9931 2.97355C20.0961 2.91055 20.1371 2.85055 20.1411 2.81555C20.1531 2.69455 19.8661 2.36955 19.0711 2.28355C18.5221 2.22355 18.1241 1.73155 18.1851 1.18155C18.2441 0.632548 18.7351 0.235548 19.2861 0.295548C21.3231 0.514548 22.2591 1.83755 22.1301 3.03055C22.0001 4.22455 20.8051 5.31655 18.7661 5.09755C18.1881 5.03455 17.8861 5.15455 17.7561 5.23155C17.6531 5.29355 17.6111 5.35455 17.6071 5.38855C17.5941 5.51055 17.8831 5.83455 18.6781 5.92055C20.7151 6.14055 21.6511 7.46255 21.5221 8.65555C21.3931 9.84755 20.1981 10.9415 18.1601 10.7205C17.5821 10.6585 17.2781 10.7785 17.1481 10.8545C17.0441 10.9185 17.0041 10.9785 17.0001 11.0125C16.9871 11.1335 17.2761 11.4585 18.0701 11.5445C18.6181 11.6045 19.0171 12.0975 18.9561 12.6465C18.9281 12.9205 18.7891 13.1575 18.5901 13.3175Z" fill="#AA8DD8"/>
<path d="M30.6602 22.5666C32.6332 22.0096 33.9942 22.8896 34.3182 24.0446C34.6422 25.1986 33.9402 26.6596 31.9682 27.2146C31.1982 27.4306 30.9672 27.7986 30.9982 27.9156C31.0322 28.0336 31.4232 28.2276 32.1912 28.0106C34.1632 27.4556 35.5242 28.3356 35.8482 29.4896C36.1742 30.6446 35.4702 32.1036 33.4972 32.6596C32.7282 32.8756 32.4962 33.2446 32.5302 33.3616C32.5632 33.4786 32.9532 33.6726 33.7222 33.4566C34.2522 33.3076 34.8062 33.6166 34.9552 34.1476C35.1032 34.6796 34.7942 35.2316 34.2622 35.3816C32.2912 35.9366 30.9292 35.0586 30.6032 33.9026C30.2792 32.7486 30.9822 31.2896 32.9562 30.7336C33.7262 30.5166 33.9572 30.1496 33.9232 30.0316C33.8912 29.9146 33.5012 29.7196 32.7332 29.9356C30.7592 30.4916 29.3992 29.6136 29.0742 28.4566C28.7492 27.3026 29.4522 25.8436 31.4252 25.2866C32.1932 25.0716 32.4242 24.7016 32.3922 24.5856C32.3582 24.4676 31.9692 24.2736 31.2002 24.4896C30.6682 24.6396 30.1172 24.3296 29.9672 23.7986C29.8182 23.2686 30.1282 22.7166 30.6602 22.5666Z" fill="#77B255"/>
<path d="M23.0011 19.8687C22.7071 19.8687 22.4171 19.7397 22.2191 19.4937C21.8741 19.0617 21.9451 18.4327 22.3751 18.0877C22.5931 17.9127 27.7931 13.8287 35.1421 14.8797C35.6891 14.9577 36.0691 15.4637 35.9911 16.0107C35.9131 16.5567 35.4111 16.9407 34.8591 16.8587C28.3661 15.9367 23.6721 19.6127 23.6261 19.6497C23.4401 19.7977 23.2201 19.8687 23.0011 19.8687Z" fill="#AA8DD8"/>
<path d="M5.75397 15.7066C5.65897 15.7066 5.56197 15.6926 5.46597 15.6646C4.93697 15.5056 4.63697 14.9486 4.79597 14.4196C5.92897 10.6466 6.95597 4.62563 5.69397 3.05563C5.55297 2.87763 5.33997 2.70263 4.85197 2.73963C3.91397 2.81163 4.00297 4.79063 4.00397 4.81063C4.04597 5.36163 3.63197 5.84163 3.08197 5.88263C2.52297 5.91663 2.05097 5.51063 2.00997 4.95963C1.90697 3.58063 2.33597 0.924633 4.70197 0.745633C5.75797 0.665633 6.63497 1.03263 7.25397 1.80263C9.62497 4.75363 7.21797 13.3086 6.71197 14.9946C6.58197 15.4276 6.18397 15.7066 5.75397 15.7066Z" fill="#77B255"/>
<path d="M25.5 10.7075C26.3284 10.7075 27 10.0359 27 9.20752C27 8.37909 26.3284 7.70752 25.5 7.70752C24.6716 7.70752 24 8.37909 24 9.20752C24 10.0359 24.6716 10.7075 25.5 10.7075Z" fill="#5C913B"/>
<path d="M2 19.7075C3.10457 19.7075 4 18.8121 4 17.7075C4 16.6029 3.10457 15.7075 2 15.7075C0.89543 15.7075 0 16.6029 0 17.7075C0 18.8121 0.89543 19.7075 2 19.7075Z" fill="#9266CC"/>
<path d="M32.5 20.7075C33.3284 20.7075 34 20.0359 34 19.2075C34 18.3791 33.3284 17.7075 32.5 17.7075C31.6716 17.7075 31 18.3791 31 19.2075C31 20.0359 31.6716 20.7075 32.5 20.7075Z" fill="#5C913B"/>
<path d="M23.5 32.7075C24.3284 32.7075 25 32.0359 25 31.2075C25 30.3791 24.3284 29.7075 23.5 29.7075C22.6716 29.7075 22 30.3791 22 31.2075C22 32.0359 22.6716 32.7075 23.5 32.7075Z" fill="#5C913B"/>
<path d="M28 5.70752C29.1046 5.70752 30 4.81209 30 3.70752C30 2.60295 29.1046 1.70752 28 1.70752C26.8954 1.70752 26 2.60295 26 3.70752C26 4.81209 26.8954 5.70752 28 5.70752Z" fill="#FFCC4D"/>
<path d="M32.5 9.70752C33.3284 9.70752 34 9.03595 34 8.20752C34 7.37909 33.3284 6.70752 32.5 6.70752C31.6716 6.70752 31 7.37909 31 8.20752C31 9.03595 31.6716 9.70752 32.5 9.70752Z" fill="#FFCC4D"/>
<path d="M29.5 13.7075C30.3284 13.7075 31 13.0359 31 12.2075C31 11.3791 30.3284 10.7075 29.5 10.7075C28.6716 10.7075 28 11.3791 28 12.2075C28 13.0359 28.6716 13.7075 29.5 13.7075Z" fill="#FFCC4D"/>
<path d="M7.5 24.7075C8.32843 24.7075 9 24.0359 9 23.2075C9 22.3791 8.32843 21.7075 7.5 21.7075C6.67157 21.7075 6 22.3791 6 23.2075C6 24.0359 6.67157 24.7075 7.5 24.7075Z" fill="#FFCC4D"/>
</svg>
