<svg width="36" height="36" viewBox="0 0 36 36" fill="none" xmlns="http://www.w3.org/2000/svg">
<path d="M11.3757 18.5538L10.2324 24.6512C10.0524 27.5311 8.2728 33.7428 2.51531 33.7428C-0.739253 33.7428 -0.152318 28.6527 2.51531 28.6527C5.18295 28.6527 5.65931 25.4134 5.94512 24.6512C6.17378 24.0415 6.92961 20.3322 7.27894 18.5538C7.40597 17.7598 7.79341 15.8862 8.32694 14.7429C8.86046 13.5996 9.94657 13.0597 10.4229 12.9327C10.7723 12.7422 11.7186 12.4373 12.7095 12.7422C13.7003 13.047 14.6467 14.203 14.996 14.7429L16.3298 16.5531C18.4258 18.9349 18.9975 19.2207 20.9029 19.2207C22.4273 19.2207 24.0787 17.3788 24.7138 16.4578C25.6665 14.8382 27.6482 11.4465 27.9531 10.8367C28.258 10.227 27.826 9.82047 27.572 9.69344L24.5233 7.78799C27.7943 5.81902 34.3935 1.84298 34.6222 1.69055C34.908 1.5 35.0985 1.5 35.1938 1.5C35.27 1.5 35.2891 1.62703 35.2891 1.69055V14.6476C34.5904 14.203 33.0216 13.1995 32.3356 12.7422C31.6497 12.2849 31.3511 12.5516 31.2876 12.7422L27.6673 18.9349C27.0321 20.5863 24.79 23.889 20.9029 23.889C16.044 23.889 13.948 20.1734 12.7095 18.5538C11.7186 17.2581 11.4074 18.0139 11.3757 18.5538Z" fill="#2656D8"/>
</svg>
