<svg width="51" height="50" viewBox="0 0 51 50" fill="none" xmlns="http://www.w3.org/2000/svg">
<rect x="0.459961" width="50" height="50" rx="25" fill="white"/>
<g clip-path="url(#clip0_1_16543)">
<path d="M40.0134 16.1709C38.9696 16.6334 37.8484 16.9459 36.6696 17.0871C37.8859 16.3594 38.7958 15.214 39.2296 13.8646C38.0869 14.5434 36.8363 15.0211 35.5321 15.2771C34.6551 14.3407 33.4934 13.72 32.2275 13.5115C30.9616 13.3029 29.6622 13.5181 28.5312 14.1237C27.4001 14.7293 26.5006 15.6913 25.9723 16.8605C25.444 18.0297 25.3165 19.3406 25.6096 20.5896C23.2942 20.4734 21.0291 19.8716 18.9614 18.8233C16.8936 17.775 15.0694 16.3036 13.6071 14.5046C13.1071 15.3671 12.8196 16.3671 12.8196 17.4321C12.8191 18.3909 13.0552 19.3349 13.507 20.1806C13.9588 21.0262 14.6123 21.7472 15.4096 22.2796C14.485 22.2502 13.5807 22.0004 12.7721 21.5509V21.6259C12.772 22.9706 13.2372 24.2739 14.0886 25.3146C14.94 26.3554 16.1253 27.0696 17.4434 27.3359C16.5856 27.568 15.6863 27.6022 14.8134 27.4359C15.1852 28.5929 15.9096 29.6047 16.8851 30.3295C17.8605 31.0544 19.0383 31.4561 20.2534 31.4784C18.1907 33.0977 15.6432 33.976 13.0209 33.9721C12.5563 33.9723 12.0922 33.9451 11.6309 33.8909C14.2927 35.6024 17.3913 36.5107 20.5559 36.5071C31.2684 36.5071 37.1246 27.6346 37.1246 19.9396C37.1246 19.6896 37.1184 19.4371 37.1071 19.1871C38.2462 18.3634 39.2295 17.3433 40.0109 16.1746L40.0134 16.1709Z" fill="url(#paint0_linear_1_16543)"/>
</g>
<defs>
<linearGradient id="paint0_linear_1_16543" x1="25.8221" y1="13.434" x2="25.8221" y2="36.5071" gradientUnits="userSpaceOnUse">
<stop stop-color="#011032"/>
<stop offset="1" stop-color="#02194D"/>
</linearGradient>
<clipPath id="clip0_1_16543">
<rect width="30" height="30" fill="white" transform="translate(10.46 10)"/>
</clipPath>
</defs>
</svg>
