<svg width="16" height="15" viewBox="0 0 16 15" fill="none" xmlns="http://www.w3.org/2000/svg">
<path d="M15.2561 2.03896C14.6884 2.33956 14.0712 2.559 13.415 2.68456C14.0692 2.22828 14.5351 1.54957 14.7256 0.775079C14.1108 1.20095 13.4275 1.51824 12.7054 1.71315C12.1764 1.2219 11.4999 0.91908 10.7811 0.851692C10.0622 0.784304 9.34127 0.956122 8.73009 1.34047C8.11892 1.72482 7.65174 2.30019 7.40108 2.97726C7.15042 3.65433 7.13031 4.39522 7.34386 5.08489C6.03952 5.11052 4.74437 4.8616 3.54246 4.35429C2.34055 3.84697 1.25874 3.09261 0.367241 2.14014C0.120417 2.64395 -0.00172082 3.2166 0.040085 3.81445C0.0774067 4.35267 0.247002 4.87336 0.533824 5.33032C0.820646 5.78728 1.21583 6.16638 1.6843 6.43399C1.16408 6.45377 0.646656 6.34901 0.175099 6.12843L0.178043 6.17053C0.230775 6.92538 0.543044 7.63875 1.06186 8.18958C1.58068 8.7404 2.2741 9.09477 3.02445 9.19254C2.55204 9.35653 2.04855 9.41103 1.55199 9.35192C1.80617 9.98683 2.25252 10.5264 2.82856 10.895C3.40461 11.2636 4.0815 11.4429 4.76449 11.4077C3.67013 12.3976 2.27457 12.9907 0.802326 13.0915C0.541564 13.1098 0.279953 13.1128 0.0188418 13.1004C1.58029 13.9567 3.35537 14.345 5.1317 14.2188C11.1453 13.7983 14.0845 8.58768 13.7824 4.26799C13.7726 4.12765 13.7592 3.98615 13.7431 3.84625C14.3502 3.33909 14.8621 2.72785 15.2549 2.04116L15.2561 2.03896Z" fill="white"/>
</svg>
