<svg width="60" height="61" viewBox="0 0 60 61" fill="none" xmlns="http://www.w3.org/2000/svg">
<path d="M41.3808 14.5266L40.4769 11.1531C40.2784 10.413 39.9124 9.72846 39.4073 9.1523C38.9021 8.57614 38.2713 8.12378 37.5635 7.83017C36.8558 7.53656 36.09 7.40954 35.3254 7.45892C34.5607 7.50831 33.8176 7.73278 33.1535 8.11499L8.48837 22.3152C7.53323 22.8649 6.78646 23.7147 6.36415 24.7326C5.94184 25.7505 5.86765 26.8795 6.15311 27.9439L6.45269 29.0619" fill="#1BA75B"/>
<path d="M41.3808 14.5266L40.4769 11.1531C40.2784 10.413 39.9124 9.72846 39.4073 9.1523C38.9021 8.57614 38.2713 8.12378 37.5636 7.83017C36.8558 7.53656 36.09 7.40954 35.3254 7.45892C34.5607 7.50831 33.8176 7.73278 33.1535 8.11499L8.48837 22.3152C7.53323 22.8649 6.78646 23.7147 6.36415 24.7326C5.94184 25.7505 5.86765 26.8795 6.15311 27.9439L6.45269 29.0619" stroke="#20EE7E" stroke-width="3"/>
<path d="M52.2088 45.2721L18.4014 54.3308C17.1205 54.674 15.7557 54.4943 14.6073 53.8313C13.4589 53.1682 12.6209 52.0762 12.2777 50.7953L6.45425 29.0619C6.11104 27.781 6.29071 26.4163 6.95375 25.2678C7.61679 24.1194 8.70889 23.2814 9.98979 22.9382L43.7972 13.8795C45.0781 13.5363 46.4429 13.716 47.5913 14.379C48.7397 15.0421 49.5777 16.1342 49.9209 17.4151L55.7443 39.1484C56.0876 40.4293 55.9079 41.7941 55.2448 42.9425C54.5818 44.0909 53.4897 44.9289 52.2088 45.2721Z" fill="#1BA75B" stroke="#20EE7E" stroke-width="3"/>
<path d="M42.288 32.4009C41.9678 32.4867 41.6266 32.4417 41.3395 32.276C41.0524 32.1102 40.8429 31.8372 40.7571 31.517C40.6713 31.1968 40.7162 30.8556 40.882 30.5685C41.0478 30.2813 41.3208 30.0719 41.641 29.986C41.9612 29.9002 42.3024 29.9452 42.5895 30.1109C42.8766 30.2767 43.0861 30.5497 43.1719 30.8699C43.2577 31.1902 43.2128 31.5313 43.0471 31.8184C42.8813 32.1056 42.6083 32.3151 42.288 32.4009Z" fill="#1BA75B" stroke="#20EE7E" stroke-width="3" stroke-linecap="round" stroke-linejoin="round"/>
<circle cx="48" cy="41.75" r="9.5" fill="#20EE7E" stroke="white" stroke-width="4"/>
</svg>
