<svg xmlns="http://www.w3.org/2000/svg" width="29" height="21"><path d="M19.791 20.399l.846-.034c1.967-.087 3.84-.23 4.702-.462 1.224-.329 2.188-1.259 2.515-2.49.552-2.074.592-6.24.595-6.824v-.139c-.003-.584-.043-4.75-.595-6.823a3.571 3.571 0 00-2.515-2.531c-.863-.233-2.735-.375-4.702-.462L19.791.6c-2.116-.076-4.19-.095-5.094-.1h-.946c-.904.005-2.978.024-5.094.101l-.845.034c-1.967.087-3.84.23-4.703.462A3.575 3.575 0 00.594 3.628C.042 5.702.003 9.867 0 10.451v.138c.003.584.042 4.75.594 6.823.327 1.232 1.291 2.162 2.515 2.491.863.233 2.736.375 4.703.462l.845.034c2.116.077 4.19.096 5.094.101h.946c.905-.005 2.978-.024 5.094-.101zm-8.476-5.649V6.29l7.435 4.23-7.435 4.23z" fill="#000" fill-rule="nonzero"/></svg>